<svg width="263" height="64" viewBox="0 0 263 64" fill="none" xmlns="http://www.w3.org/2000/svg">
<rect x="3" y="3" width="257" height="58" fill="#DA8B14"/>
<path d="M107.648 32.046V30.354C107.648 28.854 107.768 27.894 108.008 27.474C108.248 27.054 108.758 26.484 109.538 25.764C110.33 25.044 110.918 24.684 111.302 24.684C111.962 24.684 112.718 25.068 113.57 25.836C114.422 26.592 114.962 27.426 115.19 28.338L113.192 29.724C113 29.076 112.694 28.482 112.274 27.942C111.854 27.39 111.56 27.114 111.392 27.114C111.092 27.114 110.75 27.408 110.366 27.996C110.21 28.224 110.132 29.01 110.132 30.354V32.046C110.132 33.426 110.21 34.212 110.366 34.404C110.75 34.992 111.092 35.286 111.392 35.286C111.56 35.286 111.854 35.052 112.274 34.584C112.694 34.104 113 33.576 113.192 33L115.19 34.404C114.962 35.232 114.422 35.994 113.57 36.69C112.718 37.374 111.962 37.716 111.302 37.716C110.918 37.716 110.33 37.356 109.538 36.636C108.758 35.916 108.248 35.346 108.008 34.926C107.768 34.506 107.648 33.546 107.648 32.046ZM119.358 37.5H116.982V27.672C116.982 27.06 116.91 26.592 116.766 26.268C116.622 25.944 116.394 25.65 116.082 25.386L118.062 24C118.926 24.684 119.358 25.65 119.358 26.898V28.572C120.102 27.912 120.642 27.582 120.978 27.582C121.314 27.582 121.848 27.918 122.58 28.59C123.324 29.25 123.696 29.904 123.696 30.552V34.026C123.696 34.638 123.768 35.112 123.912 35.448C124.056 35.784 124.284 36.078 124.596 36.33L122.616 37.716C121.752 37.032 121.32 36.06 121.32 34.8V30.804C121.32 30.6 121.212 30.39 120.996 30.174C120.78 29.946 120.576 29.832 120.384 29.832C120.204 29.832 119.862 30.084 119.358 30.588V37.5ZM128.32 35.376C128.512 35.556 128.662 35.646 128.77 35.646C128.878 35.646 129.022 35.556 129.202 35.376C129.394 35.196 129.532 35.034 129.616 34.89C129.772 34.626 129.85 33.882 129.85 32.658C129.85 31.434 129.772 30.684 129.616 30.408C129.532 30.264 129.394 30.102 129.202 29.922C129.022 29.742 128.878 29.652 128.77 29.652C128.662 29.652 128.512 29.742 128.32 29.922C128.14 30.102 128.008 30.264 127.924 30.408C127.768 30.672 127.69 31.416 127.69 32.64C127.69 33.864 127.768 34.614 127.924 34.89C128.008 35.034 128.14 35.196 128.32 35.376ZM130.39 36.834C129.658 37.422 129.118 37.716 128.77 37.716C128.422 37.716 127.876 37.422 127.132 36.834C126.4 36.246 125.95 35.808 125.782 35.52C125.53 35.076 125.404 34.116 125.404 32.64C125.404 31.164 125.53 30.21 125.782 29.778C125.95 29.49 126.4 29.052 127.132 28.464C127.876 27.876 128.422 27.582 128.77 27.582C129.118 27.582 129.658 27.876 130.39 28.464C131.134 29.052 131.59 29.49 131.758 29.778C132.01 30.21 132.136 31.164 132.136 32.64C132.136 34.116 132.01 35.076 131.758 35.52C131.59 35.808 131.134 36.246 130.39 36.834ZM136.125 35.376C136.317 35.556 136.467 35.646 136.575 35.646C136.683 35.646 136.827 35.556 137.007 35.376C137.199 35.196 137.337 35.034 137.421 34.89C137.577 34.626 137.655 33.882 137.655 32.658C137.655 31.434 137.577 30.684 137.421 30.408C137.337 30.264 137.199 30.102 137.007 29.922C136.827 29.742 136.683 29.652 136.575 29.652C136.467 29.652 136.317 29.742 136.125 29.922C135.945 30.102 135.813 30.264 135.729 30.408C135.573 30.672 135.495 31.416 135.495 32.64C135.495 33.864 135.573 34.614 135.729 34.89C135.813 35.034 135.945 35.196 136.125 35.376ZM138.195 36.834C137.463 37.422 136.923 37.716 136.575 37.716C136.227 37.716 135.681 37.422 134.937 36.834C134.205 36.246 133.755 35.808 133.587 35.52C133.335 35.076 133.209 34.116 133.209 32.64C133.209 31.164 133.335 30.21 133.587 29.778C133.755 29.49 134.205 29.052 134.937 28.464C135.681 27.876 136.227 27.582 136.575 27.582C136.923 27.582 137.463 27.876 138.195 28.464C138.939 29.052 139.395 29.49 139.563 29.778C139.815 30.21 139.941 31.164 139.941 32.64C139.941 34.116 139.815 35.076 139.563 35.52C139.395 35.808 138.939 36.246 138.195 36.834ZM147.44 34.584C147.44 34.956 146.978 35.574 146.054 36.438C145.13 37.29 144.44 37.716 143.984 37.716C143.54 37.716 142.982 37.494 142.31 37.05C141.65 36.606 141.158 36.084 140.834 35.484L142.688 34.206C143.288 35.046 143.726 35.466 144.002 35.466C144.206 35.466 144.458 35.364 144.758 35.16C145.058 34.956 145.208 34.764 145.208 34.584C145.208 34.536 145.064 34.434 144.776 34.278C144.488 34.11 144.134 33.906 143.714 33.666C143.306 33.414 142.898 33.138 142.49 32.838C142.082 32.526 141.734 32.148 141.446 31.704C141.158 31.26 141.014 30.81 141.014 30.354C141.014 29.898 141.422 29.322 142.238 28.626C143.054 27.93 143.678 27.582 144.11 27.582C144.554 27.582 145.106 27.804 145.766 28.248C146.438 28.692 146.936 29.214 147.26 29.814L145.406 31.092C144.806 30.252 144.368 29.832 144.092 29.832C143.948 29.832 143.768 29.916 143.552 30.084C143.348 30.24 143.246 30.384 143.246 30.516C143.246 30.648 143.462 30.852 143.894 31.128C144.338 31.404 144.818 31.692 145.334 31.992C145.862 32.28 146.342 32.664 146.774 33.144C147.218 33.612 147.44 34.092 147.44 34.584ZM155.076 32.622V33.27H150.72C150.72 33.99 150.81 34.56 150.99 34.98C151.05 35.124 151.158 35.274 151.314 35.43C151.47 35.574 151.632 35.646 151.8 35.646C151.968 35.646 152.178 35.502 152.43 35.214C152.682 34.926 152.88 34.578 153.024 34.17L154.878 35.484C154.554 36.084 154.056 36.606 153.384 37.05C152.724 37.494 152.19 37.716 151.782 37.716C151.374 37.716 150.78 37.398 150 36.762C149.232 36.126 148.764 35.634 148.596 35.286C148.428 34.926 148.344 34.05 148.344 32.658C148.344 31.254 148.428 30.378 148.596 30.03C148.764 29.67 149.232 29.172 150 28.536C150.78 27.9 151.35 27.582 151.71 27.582C152.07 27.582 152.634 27.9 153.402 28.536C154.182 29.172 154.656 29.67 154.824 30.03C154.992 30.378 155.076 31.242 155.076 32.622ZM152.574 30.372C152.49 30.204 152.352 30.042 152.16 29.886C151.98 29.73 151.806 29.652 151.638 29.652C151.482 29.652 151.302 29.814 151.098 30.138C150.894 30.45 150.768 30.924 150.72 31.56H152.772C152.736 30.924 152.67 30.528 152.574 30.372Z" fill="#0F0F0F"/>
<path fill-rule="evenodd" clip-rule="evenodd" d="M239 3H251H263V15V27H251V15H239V3Z" fill="#31251E"/>
<path fill-rule="evenodd" clip-rule="evenodd" d="M263 40H251V52H239V64H251H263V52V40Z" fill="#31251E"/>
<path fill-rule="evenodd" clip-rule="evenodd" d="M0 3H12H24V15H12V27H0V15V3Z" fill="#31251E"/>
<path fill-rule="evenodd" clip-rule="evenodd" d="M12 40H0V52V64H12H24V52H12V40Z" fill="#31251E"/>
<rect x="3" y="3" width="257" height="58" stroke="#31251E" stroke-width="6"/>
</svg>
