<svg width="267" height="38" viewBox="0 0 267 38" fill="none" xmlns="http://www.w3.org/2000/svg">
<path d="M6.65625 7.97656V6.75H1.92188V2.85938H7.44531V1.625H0.460938V13H1.92188V7.97656H6.65625ZM10.1641 4.54688V5.80469H13.0391V11.75H10.1641V13H17.2422V11.75H14.4844V4.54688H10.1641ZM12.8516 2.32812C12.8516 2.5625 12.9219 2.75781 13.0625 2.91406C13.2083 3.07031 13.4271 3.14844 13.7188 3.14844C14.0052 3.14844 14.2214 3.07031 14.3672 2.91406C14.513 2.75781 14.5859 2.5625 14.5859 2.32812C14.5859 2.19792 14.5651 2.07812 14.5234 1.96875C14.4818 1.85938 14.4193 1.76823 14.3359 1.69531C14.2682 1.6276 14.1823 1.57552 14.0781 1.53906C13.974 1.4974 13.8542 1.47656 13.7188 1.47656C13.5833 1.47656 13.4609 1.4974 13.3516 1.53906C13.2474 1.57552 13.1615 1.6276 13.0938 1.69531C13.0104 1.77344 12.9479 1.86719 12.9062 1.97656C12.8698 2.08594 12.8516 2.20312 12.8516 2.32812ZM19.7734 1V2.25781H22.6484V11.75H19.7734V13H26.8516V11.75H24.0938V1H19.7734ZM29.3828 1V2.25781H32.2578V11.75H29.3828V13H36.4609V11.75H33.7031V1H29.3828ZM47.9688 8.69531V8.86719C47.9688 9.47656 48.0573 10.0417 48.2344 10.5625C48.4115 11.0833 48.6667 11.5365 49 11.9219C49.3281 12.3073 49.7292 12.6094 50.2031 12.8281C50.6823 13.0469 51.2214 13.1562 51.8203 13.1562C52.4141 13.1562 52.9479 13.0469 53.4219 12.8281C53.8958 12.6094 54.2995 12.3073 54.6328 11.9219C54.9609 11.5365 55.2135 11.0833 55.3906 10.5625C55.5677 10.0417 55.6562 9.47656 55.6562 8.86719V8.69531C55.6562 8.08594 55.5677 7.52083 55.3906 7C55.2135 6.47396 54.9609 6.01823 54.6328 5.63281C54.2995 5.2474 53.8932 4.94531 53.4141 4.72656C52.9401 4.5026 52.4036 4.39062 51.8047 4.39062C51.2109 4.39062 50.6771 4.5026 50.2031 4.72656C49.7292 4.94531 49.3281 5.2474 49 5.63281C48.6667 6.01823 48.4115 6.47396 48.2344 7C48.0573 7.52083 47.9688 8.08594 47.9688 8.69531ZM49.4141 8.86719V8.69531C49.4141 8.28385 49.4635 7.89062 49.5625 7.51562C49.6615 7.13542 49.8125 6.80208 50.0156 6.51562C50.2135 6.22917 50.4609 6.0026 50.7578 5.83594C51.0547 5.66406 51.4036 5.57812 51.8047 5.57812C52.2057 5.57812 52.5547 5.66406 52.8516 5.83594C53.1536 6.0026 53.4062 6.22917 53.6094 6.51562C53.8073 6.80208 53.9557 7.13542 54.0547 7.51562C54.1589 7.89062 54.2109 8.28385 54.2109 8.69531V8.86719C54.2109 9.28385 54.1615 9.68229 54.0625 10.0625C53.9635 10.4375 53.8151 10.7682 53.6172 11.0547C53.4141 11.3411 53.1615 11.5677 52.8594 11.7344C52.5625 11.901 52.2161 11.9844 51.8203 11.9844C51.4193 11.9844 51.0677 11.901 50.7656 11.7344C50.4635 11.5677 50.2135 11.3411 50.0156 11.0547C49.8125 10.7682 49.6615 10.4375 49.5625 10.0625C49.4635 9.68229 49.4141 9.28385 49.4141 8.86719ZM63.5547 13H64.8672V4.54688H63.4141V10.6094C63.3359 10.7917 63.237 10.9609 63.1172 11.1172C63.0026 11.2682 62.8672 11.3984 62.7109 11.5078C62.5234 11.6432 62.3021 11.75 62.0469 11.8281C61.7917 11.901 61.5026 11.9375 61.1797 11.9375C60.9036 11.9375 60.6589 11.901 60.4453 11.8281C60.237 11.7552 60.0599 11.6276 59.9141 11.4453C59.7682 11.2682 59.6589 11.0286 59.5859 10.7266C59.513 10.4245 59.4766 10.0443 59.4766 9.58594V4.54688H58.0312V9.57031C58.0312 10.2005 58.099 10.7422 58.2344 11.1953C58.375 11.6432 58.5729 12.013 58.8281 12.3047C59.0833 12.5964 59.3906 12.8125 59.75 12.9531C60.1094 13.0885 60.5104 13.1562 60.9531 13.1562C61.5052 13.1562 61.9922 13.0417 62.4141 12.8125C62.8359 12.5781 63.1875 12.2526 63.4688 11.8359L63.5547 13ZM71.0156 2.5H69.5625V4.54688H67.3438V5.66406H69.5625V10.2578C69.5625 10.7786 69.6302 11.224 69.7656 11.5938C69.9062 11.9583 70.0964 12.2552 70.3359 12.4844C70.5755 12.7188 70.8568 12.8906 71.1797 13C71.5078 13.1042 71.8594 13.1562 72.2344 13.1562C72.4583 13.1562 72.6823 13.1458 72.9062 13.125C73.1354 13.1042 73.3516 13.0729 73.5547 13.0312C73.7578 12.9948 73.9453 12.9505 74.1172 12.8984C74.2891 12.8411 74.4349 12.776 74.5547 12.7031L74.3516 11.6797C74.263 11.7005 74.1484 11.7266 74.0078 11.7578C73.8724 11.7839 73.7266 11.8099 73.5703 11.8359C73.4089 11.862 73.2448 11.8854 73.0781 11.9062C72.9115 11.9219 72.75 11.9297 72.5938 11.9297C72.3802 11.9297 72.1771 11.9036 71.9844 11.8516C71.7969 11.7995 71.6302 11.7083 71.4844 11.5781C71.3385 11.4531 71.224 11.2839 71.1406 11.0703C71.0573 10.8568 71.0156 10.5859 71.0156 10.2578V5.66406H74.2344V4.54688H71.0156V2.5ZM90.2344 2.5H88.7812V4.54688H86.5625V5.66406H88.7812V10.2578C88.7812 10.7786 88.849 11.224 88.9844 11.5938C89.125 11.9583 89.3151 12.2552 89.5547 12.4844C89.7943 12.7188 90.0755 12.8906 90.3984 13C90.7266 13.1042 91.0781 13.1562 91.4531 13.1562C91.6771 13.1562 91.901 13.1458 92.125 13.125C92.3542 13.1042 92.5703 13.0729 92.7734 13.0312C92.9766 12.9948 93.1641 12.9505 93.3359 12.8984C93.5078 12.8411 93.6536 12.776 93.7734 12.7031L93.5703 11.6797C93.4818 11.7005 93.3672 11.7266 93.2266 11.7578C93.0911 11.7839 92.9453 11.8099 92.7891 11.8359C92.6276 11.862 92.4635 11.8854 92.2969 11.9062C92.1302 11.9219 91.9688 11.9297 91.8125 11.9297C91.599 11.9297 91.3958 11.9036 91.2031 11.8516C91.0156 11.7995 90.849 11.7083 90.7031 11.5781C90.5573 11.4531 90.4427 11.2839 90.3594 11.0703C90.276 10.8568 90.2344 10.5859 90.2344 10.2578V5.66406H93.4531V4.54688H90.2344V2.5ZM97.8672 5.80469V1H96.4219V13H97.8672V6.85938C97.9714 6.69271 98.0885 6.54167 98.2188 6.40625C98.3542 6.26562 98.5 6.14323 98.6562 6.03906C98.8542 5.90365 99.0703 5.79948 99.3047 5.72656C99.5391 5.65365 99.7865 5.61719 100.047 5.61719C100.365 5.61198 100.646 5.65625 100.891 5.75C101.135 5.83854 101.339 5.97396 101.5 6.15625C101.651 6.32292 101.766 6.53385 101.844 6.78906C101.922 7.03906 101.961 7.33073 101.961 7.66406V13H103.406V7.67969C103.406 7.11198 103.336 6.6224 103.195 6.21094C103.06 5.79427 102.865 5.45052 102.609 5.17969C102.354 4.90885 102.044 4.71094 101.68 4.58594C101.32 4.45573 100.919 4.39062 100.477 4.39062C100.138 4.39583 99.8177 4.44531 99.5156 4.53906C99.2188 4.63281 98.9453 4.77083 98.6953 4.95312C98.5391 5.0625 98.3906 5.1901 98.25 5.33594C98.1094 5.47656 97.9818 5.63281 97.8672 5.80469ZM109.766 13.1562C110.589 13.1562 111.279 12.9922 111.836 12.6641C112.398 12.3307 112.82 11.9505 113.102 11.5234L112.219 10.8359C111.953 11.1797 111.62 11.4557 111.219 11.6641C110.818 11.8724 110.359 11.9766 109.844 11.9766C109.453 11.9766 109.096 11.9036 108.773 11.7578C108.451 11.612 108.174 11.4115 107.945 11.1562C107.721 10.9167 107.544 10.6406 107.414 10.3281C107.289 10.0156 107.208 9.65365 107.172 9.24219V9.1875H113.211V8.53906C113.211 7.95052 113.135 7.40365 112.984 6.89844C112.839 6.39323 112.615 5.95312 112.312 5.57812C112.01 5.20833 111.63 4.91927 111.172 4.71094C110.719 4.4974 110.188 4.39062 109.578 4.39062C109.094 4.39062 108.62 4.48958 108.156 4.6875C107.698 4.88542 107.289 5.16927 106.93 5.53906C106.565 5.91406 106.273 6.3724 106.055 6.91406C105.836 7.45052 105.727 8.0599 105.727 8.74219V9.07031C105.727 9.65885 105.826 10.2031 106.023 10.7031C106.221 11.2031 106.497 11.6354 106.852 12C107.206 12.3646 107.63 12.6484 108.125 12.8516C108.625 13.0547 109.172 13.1562 109.766 13.1562ZM109.578 5.57812C109.948 5.57812 110.266 5.64583 110.531 5.78125C110.802 5.91667 111.026 6.09375 111.203 6.3125C111.38 6.53125 111.518 6.79167 111.617 7.09375C111.716 7.39062 111.766 7.66927 111.766 7.92969V8H107.219C107.276 7.60938 107.375 7.26562 107.516 6.96875C107.661 6.66667 107.839 6.41146 108.047 6.20312C108.255 6 108.49 5.84635 108.75 5.74219C109.01 5.63281 109.286 5.57812 109.578 5.57812ZM127.406 13H128.859V5.66406H132.117V4.54688H128.859V3.95312C128.859 3.59896 128.904 3.28906 128.992 3.02344C129.086 2.75781 129.221 2.54167 129.398 2.375C129.565 2.21354 129.773 2.09375 130.023 2.01562C130.279 1.93229 130.57 1.89062 130.898 1.89062C131.221 1.89062 131.523 1.91927 131.805 1.97656C132.091 2.02865 132.341 2.09115 132.555 2.16406L132.727 0.96875C132.591 0.932292 132.458 0.901042 132.328 0.875C132.198 0.84375 132.068 0.815104 131.938 0.789062C131.74 0.752604 131.539 0.723958 131.336 0.703125C131.133 0.677083 130.927 0.664062 130.719 0.664062C130.219 0.664062 129.766 0.734375 129.359 0.875C128.953 1.01562 128.607 1.22396 128.32 1.5C128.029 1.77604 127.802 2.11979 127.641 2.53125C127.484 2.9375 127.406 3.41146 127.406 3.95312V4.54688H125.078V5.66406H127.406V13ZM134.453 8.69531V8.86719C134.453 9.47656 134.542 10.0417 134.719 10.5625C134.896 11.0833 135.151 11.5365 135.484 11.9219C135.812 12.3073 136.214 12.6094 136.688 12.8281C137.167 13.0469 137.706 13.1562 138.305 13.1562C138.898 13.1562 139.432 13.0469 139.906 12.8281C140.38 12.6094 140.784 12.3073 141.117 11.9219C141.445 11.5365 141.698 11.0833 141.875 10.5625C142.052 10.0417 142.141 9.47656 142.141 8.86719V8.69531C142.141 8.08594 142.052 7.52083 141.875 7C141.698 6.47396 141.445 6.01823 141.117 5.63281C140.784 5.2474 140.378 4.94531 139.898 4.72656C139.424 4.5026 138.888 4.39062 138.289 4.39062C137.695 4.39062 137.161 4.5026 136.688 4.72656C136.214 4.94531 135.812 5.2474 135.484 5.63281C135.151 6.01823 134.896 6.47396 134.719 7C134.542 7.52083 134.453 8.08594 134.453 8.69531ZM135.898 8.86719V8.69531C135.898 8.28385 135.948 7.89062 136.047 7.51562C136.146 7.13542 136.297 6.80208 136.5 6.51562C136.698 6.22917 136.945 6.0026 137.242 5.83594C137.539 5.66406 137.888 5.57812 138.289 5.57812C138.69 5.57812 139.039 5.66406 139.336 5.83594C139.638 6.0026 139.891 6.22917 140.094 6.51562C140.292 6.80208 140.44 7.13542 140.539 7.51562C140.643 7.89062 140.695 8.28385 140.695 8.69531V8.86719C140.695 9.28385 140.646 9.68229 140.547 10.0625C140.448 10.4375 140.299 10.7682 140.102 11.0547C139.898 11.3411 139.646 11.5677 139.344 11.7344C139.047 11.901 138.701 11.9844 138.305 11.9844C137.904 11.9844 137.552 11.901 137.25 11.7344C136.948 11.5677 136.698 11.3411 136.5 11.0547C136.297 10.7682 136.146 10.4375 136.047 10.0625C135.948 9.68229 135.898 9.28385 135.898 8.86719ZM150.008 4.39062C149.393 4.39062 148.844 4.52604 148.359 4.79688C147.88 5.0625 147.469 5.42708 147.125 5.89062L147.117 5.67969L147.055 4.54688H145.68V13H147.133V7.57812C147.227 7.31771 147.344 7.08333 147.484 6.875C147.63 6.66146 147.799 6.48177 147.992 6.33594C148.206 6.16927 148.456 6.04427 148.742 5.96094C149.029 5.8724 149.349 5.82812 149.703 5.82812C149.979 5.82812 150.242 5.84375 150.492 5.875C150.747 5.90104 151.016 5.94531 151.297 6.00781L151.492 4.59375C151.346 4.53125 151.128 4.48177 150.836 4.44531C150.549 4.40885 150.273 4.39062 150.008 4.39062ZM154.742 4.54688H153.445V13H154.82V6.27344C154.852 6.1901 154.891 6.11198 154.938 6.03906C154.99 5.96615 155.049 5.90104 155.117 5.84375C155.206 5.77083 155.312 5.71615 155.438 5.67969C155.568 5.63802 155.719 5.61719 155.891 5.61719C156.047 5.61719 156.182 5.63802 156.297 5.67969C156.417 5.71615 156.516 5.77604 156.594 5.85938C156.677 5.94792 156.737 6.0599 156.773 6.19531C156.815 6.33073 156.836 6.48698 156.836 6.66406V13H158.211V6.67188C158.211 6.64062 158.211 6.61458 158.211 6.59375C158.211 6.56771 158.211 6.54167 158.211 6.51562C158.227 6.38542 158.258 6.26823 158.305 6.16406C158.352 6.05469 158.417 5.95833 158.5 5.875C158.583 5.79688 158.688 5.73438 158.812 5.6875C158.938 5.64062 159.086 5.61719 159.258 5.61719C159.419 5.61719 159.56 5.63802 159.68 5.67969C159.805 5.72135 159.909 5.78385 159.992 5.86719C160.07 5.95573 160.13 6.06771 160.172 6.20312C160.214 6.33854 160.234 6.49479 160.234 6.67188V13H161.609V6.6875C161.609 6.28125 161.562 5.92969 161.469 5.63281C161.375 5.33073 161.24 5.08594 161.062 4.89844C160.901 4.73177 160.703 4.60677 160.469 4.52344C160.234 4.4349 159.971 4.39062 159.68 4.39062C159.466 4.39583 159.268 4.42448 159.086 4.47656C158.909 4.52865 158.747 4.59896 158.602 4.6875C158.487 4.76562 158.38 4.85677 158.281 4.96094C158.182 5.0651 158.096 5.17708 158.023 5.29688C157.966 5.16667 157.896 5.04948 157.812 4.94531C157.734 4.84115 157.646 4.7526 157.547 4.67969C157.411 4.58594 157.253 4.51562 157.07 4.46875C156.893 4.41667 156.693 4.39062 156.469 4.39062C156.073 4.39583 155.734 4.48177 155.453 4.64844C155.177 4.8151 154.953 5.04688 154.781 5.34375L154.742 4.54688ZM176.719 2.5H175.266V4.54688H173.047V5.66406H175.266V10.2578C175.266 10.7786 175.333 11.224 175.469 11.5938C175.609 11.9583 175.799 12.2552 176.039 12.4844C176.279 12.7188 176.56 12.8906 176.883 13C177.211 13.1042 177.562 13.1562 177.938 13.1562C178.161 13.1562 178.385 13.1458 178.609 13.125C178.839 13.1042 179.055 13.0729 179.258 13.0312C179.461 12.9948 179.648 12.9505 179.82 12.8984C179.992 12.8411 180.138 12.776 180.258 12.7031L180.055 11.6797C179.966 11.7005 179.852 11.7266 179.711 11.7578C179.576 11.7839 179.43 11.8099 179.273 11.8359C179.112 11.862 178.948 11.8854 178.781 11.9062C178.615 11.9219 178.453 11.9297 178.297 11.9297C178.083 11.9297 177.88 11.9036 177.688 11.8516C177.5 11.7995 177.333 11.7083 177.188 11.5781C177.042 11.4531 176.927 11.2839 176.844 11.0703C176.76 10.8568 176.719 10.5859 176.719 10.2578V5.66406H179.938V4.54688H176.719V2.5ZM182.5 8.69531V8.86719C182.5 9.47656 182.589 10.0417 182.766 10.5625C182.943 11.0833 183.198 11.5365 183.531 11.9219C183.859 12.3073 184.26 12.6094 184.734 12.8281C185.214 13.0469 185.753 13.1562 186.352 13.1562C186.945 13.1562 187.479 13.0469 187.953 12.8281C188.427 12.6094 188.831 12.3073 189.164 11.9219C189.492 11.5365 189.745 11.0833 189.922 10.5625C190.099 10.0417 190.188 9.47656 190.188 8.86719V8.69531C190.188 8.08594 190.099 7.52083 189.922 7C189.745 6.47396 189.492 6.01823 189.164 5.63281C188.831 5.2474 188.424 4.94531 187.945 4.72656C187.471 4.5026 186.935 4.39062 186.336 4.39062C185.742 4.39062 185.208 4.5026 184.734 4.72656C184.26 4.94531 183.859 5.2474 183.531 5.63281C183.198 6.01823 182.943 6.47396 182.766 7C182.589 7.52083 182.5 8.08594 182.5 8.69531ZM183.945 8.86719V8.69531C183.945 8.28385 183.995 7.89062 184.094 7.51562C184.193 7.13542 184.344 6.80208 184.547 6.51562C184.745 6.22917 184.992 6.0026 185.289 5.83594C185.586 5.66406 185.935 5.57812 186.336 5.57812C186.737 5.57812 187.086 5.66406 187.383 5.83594C187.685 6.0026 187.938 6.22917 188.141 6.51562C188.339 6.80208 188.487 7.13542 188.586 7.51562C188.69 7.89062 188.742 8.28385 188.742 8.69531V8.86719C188.742 9.28385 188.693 9.68229 188.594 10.0625C188.495 10.4375 188.346 10.7682 188.148 11.0547C187.945 11.3411 187.693 11.5677 187.391 11.7344C187.094 11.901 186.747 11.9844 186.352 11.9844C185.951 11.9844 185.599 11.901 185.297 11.7344C184.995 11.5677 184.745 11.3411 184.547 11.0547C184.344 10.7682 184.193 10.4375 184.094 10.0625C183.995 9.68229 183.945 9.28385 183.945 8.86719ZM207.742 10.7578C207.742 10.8932 207.716 11.0208 207.664 11.1406C207.612 11.2604 207.536 11.3698 207.438 11.4688C207.276 11.6302 207.052 11.7578 206.766 11.8516C206.479 11.9401 206.143 11.9844 205.758 11.9844C205.513 11.9844 205.266 11.9583 205.016 11.9062C204.766 11.8542 204.539 11.7656 204.336 11.6406C204.128 11.5156 203.953 11.3516 203.812 11.1484C203.677 10.9453 203.599 10.6953 203.578 10.3984H202.133C202.133 10.7578 202.214 11.1042 202.375 11.4375C202.542 11.7708 202.781 12.0625 203.094 12.3125C203.401 12.5677 203.779 12.7734 204.227 12.9297C204.674 13.0807 205.185 13.1562 205.758 13.1562C206.258 13.1562 206.719 13.0964 207.141 12.9766C207.562 12.8568 207.924 12.6875 208.227 12.4688C208.529 12.25 208.763 11.987 208.93 11.6797C209.102 11.3724 209.188 11.0312 209.188 10.6562C209.188 10.3073 209.112 10 208.961 9.73438C208.815 9.46875 208.602 9.23438 208.32 9.03125C208.039 8.83333 207.693 8.66406 207.281 8.52344C206.87 8.3776 206.404 8.25 205.883 8.14062C205.487 8.0625 205.159 7.98177 204.898 7.89844C204.643 7.8151 204.44 7.72135 204.289 7.61719C204.133 7.51302 204.023 7.39583 203.961 7.26562C203.898 7.13542 203.867 6.98698 203.867 6.82031C203.867 6.65885 203.906 6.5026 203.984 6.35156C204.062 6.20052 204.18 6.06771 204.336 5.95312C204.487 5.83854 204.677 5.7474 204.906 5.67969C205.141 5.61198 205.411 5.57812 205.719 5.57812C206.016 5.57812 206.281 5.61979 206.516 5.70312C206.755 5.78646 206.958 5.89583 207.125 6.03125C207.292 6.16667 207.422 6.32292 207.516 6.5C207.609 6.67188 207.656 6.84896 207.656 7.03125H209.102C209.102 6.66146 209.021 6.31771 208.859 6C208.703 5.67708 208.479 5.39583 208.188 5.15625C207.896 4.91667 207.542 4.72917 207.125 4.59375C206.708 4.45833 206.24 4.39062 205.719 4.39062C205.234 4.39062 204.789 4.45573 204.383 4.58594C203.982 4.71615 203.635 4.89323 203.344 5.11719C203.052 5.34115 202.826 5.60417 202.664 5.90625C202.503 6.20312 202.422 6.52344 202.422 6.86719C202.422 7.21615 202.5 7.52344 202.656 7.78906C202.812 8.04948 203.034 8.27604 203.32 8.46875C203.602 8.66667 203.94 8.83594 204.336 8.97656C204.737 9.11719 205.18 9.23698 205.664 9.33594C206.06 9.41406 206.391 9.5026 206.656 9.60156C206.922 9.69531 207.135 9.79948 207.297 9.91406C207.458 10.0286 207.573 10.1562 207.641 10.2969C207.708 10.4323 207.742 10.5859 207.742 10.7578ZM211.961 4.54688V5.80469H214.836V11.75H211.961V13H219.039V11.75H216.281V4.54688H211.961ZM214.648 2.32812C214.648 2.5625 214.719 2.75781 214.859 2.91406C215.005 3.07031 215.224 3.14844 215.516 3.14844C215.802 3.14844 216.018 3.07031 216.164 2.91406C216.31 2.75781 216.383 2.5625 216.383 2.32812C216.383 2.19792 216.362 2.07812 216.32 1.96875C216.279 1.85938 216.216 1.76823 216.133 1.69531C216.065 1.6276 215.979 1.57552 215.875 1.53906C215.771 1.4974 215.651 1.47656 215.516 1.47656C215.38 1.47656 215.258 1.4974 215.148 1.53906C215.044 1.57552 214.958 1.6276 214.891 1.69531C214.807 1.77344 214.745 1.86719 214.703 1.97656C214.667 2.08594 214.648 2.20312 214.648 2.32812ZM221.078 8.70312V8.86719C221.078 9.47135 221.156 10.0365 221.312 10.5625C221.469 11.0833 221.693 11.5365 221.984 11.9219C222.271 12.3073 222.622 12.6094 223.039 12.8281C223.456 13.0469 223.922 13.1562 224.438 13.1562C224.745 13.1562 225.031 13.1224 225.297 13.0547C225.562 12.9922 225.805 12.901 226.023 12.7812C226.164 12.7031 226.294 12.612 226.414 12.5078C226.539 12.4036 226.656 12.2891 226.766 12.1641V12.8906C226.766 13.2552 226.714 13.5781 226.609 13.8594C226.505 14.1406 226.357 14.375 226.164 14.5625C225.966 14.7552 225.729 14.901 225.453 15C225.177 15.099 224.867 15.1484 224.523 15.1484C224.331 15.1484 224.138 15.1276 223.945 15.0859C223.753 15.0495 223.56 14.987 223.367 14.8984C223.174 14.8099 222.984 14.6901 222.797 14.5391C222.609 14.3932 222.427 14.2135 222.25 14L221.5 14.8672C221.693 15.1432 221.922 15.375 222.188 15.5625C222.458 15.75 222.74 15.8984 223.031 16.0078C223.318 16.1224 223.602 16.2031 223.883 16.25C224.164 16.3021 224.414 16.3281 224.633 16.3281C225.164 16.3281 225.648 16.25 226.086 16.0938C226.523 15.9375 226.901 15.7083 227.219 15.4062C227.531 15.1042 227.773 14.737 227.945 14.3047C228.122 13.8724 228.211 13.3776 228.211 12.8203V4.54688H226.898L226.828 5.46875C226.729 5.34375 226.622 5.22917 226.508 5.125C226.398 5.02083 226.281 4.92969 226.156 4.85156C225.927 4.70052 225.669 4.58594 225.383 4.50781C225.102 4.42969 224.792 4.39062 224.453 4.39062C223.927 4.39062 223.456 4.4974 223.039 4.71094C222.622 4.92448 222.268 5.22135 221.977 5.60156C221.685 5.98177 221.461 6.4375 221.305 6.96875C221.154 7.49479 221.078 8.07292 221.078 8.70312ZM222.523 8.86719V8.70312C222.523 8.29167 222.565 7.90104 222.648 7.53125C222.737 7.15625 222.875 6.82552 223.062 6.53906C223.245 6.25781 223.479 6.03385 223.766 5.86719C224.057 5.70052 224.406 5.61719 224.812 5.61719C225.052 5.61719 225.271 5.64844 225.469 5.71094C225.667 5.76823 225.846 5.84896 226.008 5.95312C226.169 6.0625 226.312 6.1901 226.438 6.33594C226.562 6.48177 226.672 6.64323 226.766 6.82031V10.6953C226.672 10.8776 226.562 11.0443 226.438 11.1953C226.312 11.3464 226.172 11.4766 226.016 11.5859C225.854 11.6953 225.672 11.7812 225.469 11.8438C225.271 11.901 225.047 11.9297 224.797 11.9297C224.396 11.9297 224.052 11.849 223.766 11.6875C223.479 11.5208 223.245 11.2969 223.062 11.0156C222.875 10.7344 222.737 10.4089 222.648 10.0391C222.565 9.66927 222.523 9.27865 222.523 8.86719ZM230.953 13H232.398V6.9375C232.497 6.75521 232.612 6.58854 232.742 6.4375C232.878 6.28646 233.023 6.15365 233.18 6.03906C233.372 5.90885 233.583 5.80729 233.812 5.73438C234.042 5.65625 234.289 5.61719 234.555 5.61719C234.862 5.61719 235.133 5.65365 235.367 5.72656C235.607 5.79948 235.81 5.91667 235.977 6.07812C236.138 6.23958 236.26 6.45052 236.344 6.71094C236.427 6.97135 236.469 7.28906 236.469 7.66406V13H237.914V7.63281C237.914 7.07031 237.844 6.58594 237.703 6.17969C237.568 5.76823 237.372 5.42969 237.117 5.16406C236.862 4.89844 236.552 4.70312 236.188 4.57812C235.828 4.45312 235.427 4.39062 234.984 4.39062C234.656 4.39583 234.344 4.44531 234.047 4.53906C233.755 4.6276 233.484 4.75521 233.234 4.92188C233.068 5.03125 232.909 5.16146 232.758 5.3125C232.612 5.45833 232.477 5.61979 232.352 5.79688L232.25 4.54688H230.953V13ZM255.742 13H257.055V4.54688H255.602V10.6094C255.523 10.7917 255.424 10.9609 255.305 11.1172C255.19 11.2682 255.055 11.3984 254.898 11.5078C254.711 11.6432 254.49 11.75 254.234 11.8281C253.979 11.901 253.69 11.9375 253.367 11.9375C253.091 11.9375 252.846 11.901 252.633 11.8281C252.424 11.7552 252.247 11.6276 252.102 11.4453C251.956 11.2682 251.846 11.0286 251.773 10.7266C251.701 10.4245 251.664 10.0443 251.664 9.58594V4.54688H250.219V9.57031C250.219 10.2005 250.286 10.7422 250.422 11.1953C250.562 11.6432 250.76 12.013 251.016 12.3047C251.271 12.5964 251.578 12.8125 251.938 12.9531C252.297 13.0885 252.698 13.1562 253.141 13.1562C253.693 13.1562 254.18 13.0417 254.602 12.8125C255.023 12.5781 255.375 12.2526 255.656 11.8359L255.742 13ZM259.773 16.25H261.219V12.1875C261.323 12.3021 261.435 12.4089 261.555 12.5078C261.674 12.6016 261.802 12.6875 261.938 12.7656C262.161 12.8906 262.411 12.987 262.688 13.0547C262.969 13.1224 263.271 13.1562 263.594 13.1562C264.125 13.1562 264.596 13.0469 265.008 12.8281C265.424 12.6094 265.773 12.3073 266.055 11.9219C266.336 11.5365 266.549 11.0833 266.695 10.5625C266.841 10.0365 266.914 9.47135 266.914 8.86719V8.70312C266.914 8.07292 266.841 7.49479 266.695 6.96875C266.549 6.4375 266.336 5.98177 266.055 5.60156C265.773 5.22135 265.424 4.92448 265.008 4.71094C264.591 4.4974 264.112 4.39062 263.57 4.39062C263.263 4.39062 262.974 4.42448 262.703 4.49219C262.438 4.55469 262.195 4.64844 261.977 4.77344C261.82 4.85677 261.674 4.95833 261.539 5.07812C261.404 5.19271 261.279 5.32292 261.164 5.46875L261.094 4.54688H259.773V16.25ZM265.469 8.70312V8.86719C265.469 9.27865 265.422 9.67188 265.328 10.0469C265.24 10.4219 265.102 10.7526 264.914 11.0391C264.727 11.3255 264.487 11.5547 264.195 11.7266C263.904 11.8932 263.557 11.9766 263.156 11.9766C262.906 11.9766 262.677 11.9453 262.469 11.8828C262.266 11.8203 262.081 11.7344 261.914 11.625C261.768 11.5312 261.638 11.4167 261.523 11.2812C261.409 11.1458 261.307 11 261.219 10.8438V6.77344C261.318 6.59635 261.432 6.4349 261.562 6.28906C261.693 6.14323 261.841 6.02083 262.008 5.92188C262.159 5.82292 262.328 5.7474 262.516 5.69531C262.708 5.64323 262.917 5.61719 263.141 5.61719C263.547 5.61719 263.896 5.70052 264.188 5.86719C264.479 6.03385 264.721 6.25781 264.914 6.53906C265.102 6.82552 265.24 7.15625 265.328 7.53125C265.422 7.90104 265.469 8.29167 265.469 8.70312ZM36.1172 34H37.5703V26.6641H40.8281V25.5469H37.5703V24.9531C37.5703 24.599 37.6146 24.2891 37.7031 24.0234C37.7969 23.7578 37.9323 23.5417 38.1094 23.375C38.276 23.2135 38.4844 23.0938 38.7344 23.0156C38.9896 22.9323 39.2812 22.8906 39.6094 22.8906C39.9323 22.8906 40.2344 22.9193 40.5156 22.9766C40.8021 23.0286 41.0521 23.0911 41.2656 23.1641L41.4375 21.9688C41.3021 21.9323 41.1693 21.901 41.0391 21.875C40.9089 21.8438 40.7786 21.8151 40.6484 21.7891C40.4505 21.7526 40.25 21.724 40.0469 21.7031C39.8438 21.6771 39.638 21.6641 39.4297 21.6641C38.9297 21.6641 38.4766 21.7344 38.0703 21.875C37.6641 22.0156 37.3177 22.224 37.0312 22.5C36.7396 22.776 36.513 23.1198 36.3516 23.5312C36.1953 23.9375 36.1172 24.4115 36.1172 24.9531V25.5469H33.7891V26.6641H36.1172V34ZM43.1641 29.6953V29.8672C43.1641 30.4766 43.2526 31.0417 43.4297 31.5625C43.6068 32.0833 43.862 32.5365 44.1953 32.9219C44.5234 33.3073 44.9245 33.6094 45.3984 33.8281C45.8776 34.0469 46.4167 34.1562 47.0156 34.1562C47.6094 34.1562 48.1432 34.0469 48.6172 33.8281C49.0911 33.6094 49.4948 33.3073 49.8281 32.9219C50.1562 32.5365 50.4089 32.0833 50.5859 31.5625C50.763 31.0417 50.8516 30.4766 50.8516 29.8672V29.6953C50.8516 29.0859 50.763 28.5208 50.5859 28C50.4089 27.474 50.1562 27.0182 49.8281 26.6328C49.4948 26.2474 49.0885 25.9453 48.6094 25.7266C48.1354 25.5026 47.599 25.3906 47 25.3906C46.4062 25.3906 45.8724 25.5026 45.3984 25.7266C44.9245 25.9453 44.5234 26.2474 44.1953 26.6328C43.862 27.0182 43.6068 27.474 43.4297 28C43.2526 28.5208 43.1641 29.0859 43.1641 29.6953ZM44.6094 29.8672V29.6953C44.6094 29.2839 44.6589 28.8906 44.7578 28.5156C44.8568 28.1354 45.0078 27.8021 45.2109 27.5156C45.4089 27.2292 45.6562 27.0026 45.9531 26.8359C46.25 26.6641 46.599 26.5781 47 26.5781C47.401 26.5781 47.75 26.6641 48.0469 26.8359C48.349 27.0026 48.6016 27.2292 48.8047 27.5156C49.0026 27.8021 49.151 28.1354 49.25 28.5156C49.3542 28.8906 49.4062 29.2839 49.4062 29.6953V29.8672C49.4062 30.2839 49.3568 30.6823 49.2578 31.0625C49.1589 31.4375 49.0104 31.7682 48.8125 32.0547C48.6094 32.3411 48.3568 32.5677 48.0547 32.7344C47.7578 32.901 47.4115 32.9844 47.0156 32.9844C46.6146 32.9844 46.263 32.901 45.9609 32.7344C45.6589 32.5677 45.4089 32.3411 45.2109 32.0547C45.0078 31.7682 44.8568 31.4375 44.7578 31.0625C44.6589 30.6823 44.6094 30.2839 44.6094 29.8672ZM58.7188 25.3906C58.1042 25.3906 57.5547 25.526 57.0703 25.7969C56.5911 26.0625 56.1797 26.4271 55.8359 26.8906L55.8281 26.6797L55.7656 25.5469H54.3906V34H55.8438V28.5781C55.9375 28.3177 56.0547 28.0833 56.1953 27.875C56.3411 27.6615 56.5104 27.4818 56.7031 27.3359C56.9167 27.1693 57.1667 27.0443 57.4531 26.9609C57.7396 26.8724 58.0599 26.8281 58.4141 26.8281C58.6901 26.8281 58.9531 26.8438 59.2031 26.875C59.4583 26.901 59.7266 26.9453 60.0078 27.0078L60.2031 25.5938C60.0573 25.5312 59.8385 25.4818 59.5469 25.4453C59.2604 25.4089 58.9844 25.3906 58.7188 25.3906ZM77.9688 34H79.2812V25.5469H77.8281V31.6094C77.75 31.7917 77.651 31.9609 77.5312 32.1172C77.4167 32.2682 77.2812 32.3984 77.125 32.5078C76.9375 32.6432 76.7161 32.75 76.4609 32.8281C76.2057 32.901 75.9167 32.9375 75.5938 32.9375C75.3177 32.9375 75.0729 32.901 74.8594 32.8281C74.651 32.7552 74.474 32.6276 74.3281 32.4453C74.1823 32.2682 74.0729 32.0286 74 31.7266C73.9271 31.4245 73.8906 31.0443 73.8906 30.5859V25.5469H72.4453V30.5703C72.4453 31.2005 72.513 31.7422 72.6484 32.1953C72.7891 32.6432 72.987 33.013 73.2422 33.3047C73.4974 33.5964 73.8047 33.8125 74.1641 33.9531C74.5234 34.0885 74.9245 34.1562 75.3672 34.1562C75.9193 34.1562 76.4062 34.0417 76.8281 33.8125C77.25 33.5781 77.6016 33.2526 77.8828 32.8359L77.9688 34ZM82 37.25H83.4453V33.1875C83.5495 33.3021 83.6615 33.4089 83.7812 33.5078C83.901 33.6016 84.0286 33.6875 84.1641 33.7656C84.388 33.8906 84.638 33.987 84.9141 34.0547C85.1953 34.1224 85.4974 34.1562 85.8203 34.1562C86.3516 34.1562 86.8229 34.0469 87.2344 33.8281C87.651 33.6094 88 33.3073 88.2812 32.9219C88.5625 32.5365 88.776 32.0833 88.9219 31.5625C89.0677 31.0365 89.1406 30.4714 89.1406 29.8672V29.7031C89.1406 29.0729 89.0677 28.4948 88.9219 27.9688C88.776 27.4375 88.5625 26.9818 88.2812 26.6016C88 26.2214 87.651 25.9245 87.2344 25.7109C86.8177 25.4974 86.3385 25.3906 85.7969 25.3906C85.4896 25.3906 85.2005 25.4245 84.9297 25.4922C84.6641 25.5547 84.4219 25.6484 84.2031 25.7734C84.0469 25.8568 83.901 25.9583 83.7656 26.0781C83.6302 26.1927 83.5052 26.3229 83.3906 26.4688L83.3203 25.5469H82V37.25ZM87.6953 29.7031V29.8672C87.6953 30.2786 87.6484 30.6719 87.5547 31.0469C87.4661 31.4219 87.3281 31.7526 87.1406 32.0391C86.9531 32.3255 86.7135 32.5547 86.4219 32.7266C86.1302 32.8932 85.7839 32.9766 85.3828 32.9766C85.1328 32.9766 84.9036 32.9453 84.6953 32.8828C84.4922 32.8203 84.3073 32.7344 84.1406 32.625C83.9948 32.5312 83.8646 32.4167 83.75 32.2812C83.6354 32.1458 83.5339 32 83.4453 31.8438V27.7734C83.5443 27.5964 83.6589 27.4349 83.7891 27.2891C83.9193 27.1432 84.0677 27.0208 84.2344 26.9219C84.3854 26.8229 84.5547 26.7474 84.7422 26.6953C84.9349 26.6432 85.1432 26.6172 85.3672 26.6172C85.7734 26.6172 86.1224 26.7005 86.4141 26.8672C86.7057 27.0339 86.9479 27.2578 87.1406 27.5391C87.3281 27.8255 87.4661 28.1562 87.5547 28.5312C87.6484 28.901 87.6953 29.2917 87.6953 29.7031ZM95.2188 32.9844C94.7656 32.9844 94.3854 32.8958 94.0781 32.7188C93.776 32.5365 93.5339 32.2995 93.3516 32.0078C93.1641 31.7214 93.0286 31.3984 92.9453 31.0391C92.8672 30.6745 92.8281 30.3073 92.8281 29.9375V29.6094C92.8281 29.2448 92.8672 28.8828 92.9453 28.5234C93.0286 28.1641 93.1641 27.8385 93.3516 27.5469C93.5391 27.2604 93.7839 27.0286 94.0859 26.8516C94.3932 26.6693 94.7708 26.5781 95.2188 26.5781C95.5104 26.5781 95.7812 26.6276 96.0312 26.7266C96.2865 26.8255 96.5052 26.9609 96.6875 27.1328C96.8698 27.3047 97.013 27.5052 97.1172 27.7344C97.2266 27.9583 97.2839 28.1979 97.2891 28.4531H98.6562C98.6562 28.026 98.5703 27.625 98.3984 27.25C98.2266 26.875 97.9896 26.5495 97.6875 26.2734C97.3802 26.0026 97.0156 25.7891 96.5938 25.6328C96.1771 25.4714 95.7188 25.3906 95.2188 25.3906C94.5781 25.3906 94.0182 25.5052 93.5391 25.7344C93.0599 25.9635 92.6615 26.2708 92.3438 26.6562C92.0208 27.0469 91.7786 27.4974 91.6172 28.0078C91.4557 28.5182 91.375 29.0521 91.375 29.6094V29.9375C91.375 30.5 91.4557 31.0365 91.6172 31.5469C91.7786 32.0521 92.0208 32.4974 92.3438 32.8828C92.6615 33.2734 93.0599 33.5833 93.5391 33.8125C94.0182 34.0417 94.5781 34.1562 95.2188 34.1562C95.6667 34.1562 96.0964 34.0807 96.5078 33.9297C96.9193 33.7734 97.2839 33.5651 97.6016 33.3047C97.9193 33.0495 98.1719 32.7526 98.3594 32.4141C98.5521 32.0703 98.651 31.7109 98.6562 31.3359H97.2891C97.2839 31.5703 97.2214 31.7891 97.1016 31.9922C96.987 32.1901 96.8333 32.362 96.6406 32.5078C96.4479 32.6589 96.2266 32.776 95.9766 32.8594C95.7318 32.9427 95.4792 32.9844 95.2188 32.9844ZM100.82 29.6953V29.8672C100.82 30.4766 100.909 31.0417 101.086 31.5625C101.263 32.0833 101.518 32.5365 101.852 32.9219C102.18 33.3073 102.581 33.6094 103.055 33.8281C103.534 34.0469 104.073 34.1562 104.672 34.1562C105.266 34.1562 105.799 34.0469 106.273 33.8281C106.747 33.6094 107.151 33.3073 107.484 32.9219C107.812 32.5365 108.065 32.0833 108.242 31.5625C108.419 31.0417 108.508 30.4766 108.508 29.8672V29.6953C108.508 29.0859 108.419 28.5208 108.242 28C108.065 27.474 107.812 27.0182 107.484 26.6328C107.151 26.2474 106.745 25.9453 106.266 25.7266C105.792 25.5026 105.255 25.3906 104.656 25.3906C104.062 25.3906 103.529 25.5026 103.055 25.7266C102.581 25.9453 102.18 26.2474 101.852 26.6328C101.518 27.0182 101.263 27.474 101.086 28C100.909 28.5208 100.82 29.0859 100.82 29.6953ZM102.266 29.8672V29.6953C102.266 29.2839 102.315 28.8906 102.414 28.5156C102.513 28.1354 102.664 27.8021 102.867 27.5156C103.065 27.2292 103.312 27.0026 103.609 26.8359C103.906 26.6641 104.255 26.5781 104.656 26.5781C105.057 26.5781 105.406 26.6641 105.703 26.8359C106.005 27.0026 106.258 27.2292 106.461 27.5156C106.659 27.8021 106.807 28.1354 106.906 28.5156C107.01 28.8906 107.062 29.2839 107.062 29.6953V29.8672C107.062 30.2839 107.013 30.6823 106.914 31.0625C106.815 31.4375 106.667 31.7682 106.469 32.0547C106.266 32.3411 106.013 32.5677 105.711 32.7344C105.414 32.901 105.068 32.9844 104.672 32.9844C104.271 32.9844 103.919 32.901 103.617 32.7344C103.315 32.5677 103.065 32.3411 102.867 32.0547C102.664 31.7682 102.513 31.4375 102.414 31.0625C102.315 30.6823 102.266 30.2839 102.266 29.8672ZM111.5 25.5469H110.203V34H111.578V27.2734C111.609 27.1901 111.648 27.112 111.695 27.0391C111.747 26.9661 111.807 26.901 111.875 26.8438C111.964 26.7708 112.07 26.7161 112.195 26.6797C112.326 26.638 112.477 26.6172 112.648 26.6172C112.805 26.6172 112.94 26.638 113.055 26.6797C113.174 26.7161 113.273 26.776 113.352 26.8594C113.435 26.9479 113.495 27.0599 113.531 27.1953C113.573 27.3307 113.594 27.487 113.594 27.6641V34H114.969V27.6719C114.969 27.6406 114.969 27.6146 114.969 27.5938C114.969 27.5677 114.969 27.5417 114.969 27.5156C114.984 27.3854 115.016 27.2682 115.062 27.1641C115.109 27.0547 115.174 26.9583 115.258 26.875C115.341 26.7969 115.445 26.7344 115.57 26.6875C115.695 26.6406 115.844 26.6172 116.016 26.6172C116.177 26.6172 116.318 26.638 116.438 26.6797C116.562 26.7214 116.667 26.7839 116.75 26.8672C116.828 26.9557 116.888 27.0677 116.93 27.2031C116.971 27.3385 116.992 27.4948 116.992 27.6719V34H118.367V27.6875C118.367 27.2812 118.32 26.9297 118.227 26.6328C118.133 26.3307 117.997 26.0859 117.82 25.8984C117.659 25.7318 117.461 25.6068 117.227 25.5234C116.992 25.4349 116.729 25.3906 116.438 25.3906C116.224 25.3958 116.026 25.4245 115.844 25.4766C115.667 25.5286 115.505 25.599 115.359 25.6875C115.245 25.7656 115.138 25.8568 115.039 25.9609C114.94 26.0651 114.854 26.1771 114.781 26.2969C114.724 26.1667 114.654 26.0495 114.57 25.9453C114.492 25.8411 114.404 25.7526 114.305 25.6797C114.169 25.5859 114.01 25.5156 113.828 25.4688C113.651 25.4167 113.451 25.3906 113.227 25.3906C112.831 25.3958 112.492 25.4818 112.211 25.6484C111.935 25.8151 111.711 26.0469 111.539 26.3438L111.5 25.5469ZM120.672 25.5469V26.8047H123.547V32.75H120.672V34H127.75V32.75H124.992V25.5469H120.672ZM123.359 23.3281C123.359 23.5625 123.43 23.7578 123.57 23.9141C123.716 24.0703 123.935 24.1484 124.227 24.1484C124.513 24.1484 124.729 24.0703 124.875 23.9141C125.021 23.7578 125.094 23.5625 125.094 23.3281C125.094 23.1979 125.073 23.0781 125.031 22.9688C124.99 22.8594 124.927 22.7682 124.844 22.6953C124.776 22.6276 124.69 22.5755 124.586 22.5391C124.482 22.4974 124.362 22.4766 124.227 22.4766C124.091 22.4766 123.969 22.4974 123.859 22.5391C123.755 22.5755 123.669 22.6276 123.602 22.6953C123.518 22.7734 123.456 22.8672 123.414 22.9766C123.378 23.0859 123.359 23.2031 123.359 23.3281ZM130.055 34H131.5V27.9375C131.599 27.7552 131.714 27.5885 131.844 27.4375C131.979 27.2865 132.125 27.1536 132.281 27.0391C132.474 26.9089 132.685 26.8073 132.914 26.7344C133.143 26.6562 133.391 26.6172 133.656 26.6172C133.964 26.6172 134.234 26.6536 134.469 26.7266C134.708 26.7995 134.911 26.9167 135.078 27.0781C135.24 27.2396 135.362 27.4505 135.445 27.7109C135.529 27.9714 135.57 28.2891 135.57 28.6641V34H137.016V28.6328C137.016 28.0703 136.945 27.5859 136.805 27.1797C136.669 26.7682 136.474 26.4297 136.219 26.1641C135.964 25.8984 135.654 25.7031 135.289 25.5781C134.93 25.4531 134.529 25.3906 134.086 25.3906C133.758 25.3958 133.445 25.4453 133.148 25.5391C132.857 25.6276 132.586 25.7552 132.336 25.9219C132.169 26.0312 132.01 26.1615 131.859 26.3125C131.714 26.4583 131.578 26.6198 131.453 26.7969L131.352 25.5469H130.055V34ZM139.398 29.7031V29.8672C139.398 30.4714 139.477 31.0365 139.633 31.5625C139.789 32.0833 140.013 32.5365 140.305 32.9219C140.591 33.3073 140.943 33.6094 141.359 33.8281C141.776 34.0469 142.242 34.1562 142.758 34.1562C143.065 34.1562 143.352 34.1224 143.617 34.0547C143.883 33.9922 144.125 33.901 144.344 33.7812C144.484 33.7031 144.615 33.612 144.734 33.5078C144.859 33.4036 144.977 33.2891 145.086 33.1641V33.8906C145.086 34.2552 145.034 34.5781 144.93 34.8594C144.826 35.1406 144.677 35.375 144.484 35.5625C144.286 35.7552 144.049 35.901 143.773 36C143.497 36.099 143.188 36.1484 142.844 36.1484C142.651 36.1484 142.458 36.1276 142.266 36.0859C142.073 36.0495 141.88 35.987 141.688 35.8984C141.495 35.8099 141.305 35.6901 141.117 35.5391C140.93 35.3932 140.747 35.2135 140.57 35L139.82 35.8672C140.013 36.1432 140.242 36.375 140.508 36.5625C140.779 36.75 141.06 36.8984 141.352 37.0078C141.638 37.1224 141.922 37.2031 142.203 37.25C142.484 37.3021 142.734 37.3281 142.953 37.3281C143.484 37.3281 143.969 37.25 144.406 37.0938C144.844 36.9375 145.221 36.7083 145.539 36.4062C145.852 36.1042 146.094 35.737 146.266 35.3047C146.443 34.8724 146.531 34.3776 146.531 33.8203V25.5469H145.219L145.148 26.4688C145.049 26.3438 144.943 26.2292 144.828 26.125C144.719 26.0208 144.602 25.9297 144.477 25.8516C144.247 25.7005 143.99 25.5859 143.703 25.5078C143.422 25.4297 143.112 25.3906 142.773 25.3906C142.247 25.3906 141.776 25.4974 141.359 25.7109C140.943 25.9245 140.589 26.2214 140.297 26.6016C140.005 26.9818 139.781 27.4375 139.625 27.9688C139.474 28.4948 139.398 29.0729 139.398 29.7031ZM140.844 29.8672V29.7031C140.844 29.2917 140.885 28.901 140.969 28.5312C141.057 28.1562 141.195 27.8255 141.383 27.5391C141.565 27.2578 141.799 27.0339 142.086 26.8672C142.378 26.7005 142.727 26.6172 143.133 26.6172C143.372 26.6172 143.591 26.6484 143.789 26.7109C143.987 26.7682 144.167 26.849 144.328 26.9531C144.49 27.0625 144.633 27.1901 144.758 27.3359C144.883 27.4818 144.992 27.6432 145.086 27.8203V31.6953C144.992 31.8776 144.883 32.0443 144.758 32.1953C144.633 32.3464 144.492 32.4766 144.336 32.5859C144.174 32.6953 143.992 32.7812 143.789 32.8438C143.591 32.901 143.367 32.9297 143.117 32.9297C142.716 32.9297 142.372 32.849 142.086 32.6875C141.799 32.5208 141.565 32.2969 141.383 32.0156C141.195 31.7344 141.057 31.4089 140.969 31.0391C140.885 30.6693 140.844 30.2786 140.844 29.8672ZM162.305 23.5H160.852V25.5469H158.633V26.6641H160.852V31.2578C160.852 31.7786 160.919 32.224 161.055 32.5938C161.195 32.9583 161.385 33.2552 161.625 33.4844C161.865 33.7188 162.146 33.8906 162.469 34C162.797 34.1042 163.148 34.1562 163.523 34.1562C163.747 34.1562 163.971 34.1458 164.195 34.125C164.424 34.1042 164.641 34.0729 164.844 34.0312C165.047 33.9948 165.234 33.9505 165.406 33.8984C165.578 33.8411 165.724 33.776 165.844 33.7031L165.641 32.6797C165.552 32.7005 165.438 32.7266 165.297 32.7578C165.161 32.7839 165.016 32.8099 164.859 32.8359C164.698 32.862 164.534 32.8854 164.367 32.9062C164.201 32.9219 164.039 32.9297 163.883 32.9297C163.669 32.9297 163.466 32.9036 163.273 32.8516C163.086 32.7995 162.919 32.7083 162.773 32.5781C162.628 32.4531 162.513 32.2839 162.43 32.0703C162.346 31.8568 162.305 31.5859 162.305 31.2578V26.6641H165.523V25.5469H162.305V23.5ZM168.086 29.6953V29.8672C168.086 30.4766 168.174 31.0417 168.352 31.5625C168.529 32.0833 168.784 32.5365 169.117 32.9219C169.445 33.3073 169.846 33.6094 170.32 33.8281C170.799 34.0469 171.339 34.1562 171.938 34.1562C172.531 34.1562 173.065 34.0469 173.539 33.8281C174.013 33.6094 174.417 33.3073 174.75 32.9219C175.078 32.5365 175.331 32.0833 175.508 31.5625C175.685 31.0417 175.773 30.4766 175.773 29.8672V29.6953C175.773 29.0859 175.685 28.5208 175.508 28C175.331 27.474 175.078 27.0182 174.75 26.6328C174.417 26.2474 174.01 25.9453 173.531 25.7266C173.057 25.5026 172.521 25.3906 171.922 25.3906C171.328 25.3906 170.794 25.5026 170.32 25.7266C169.846 25.9453 169.445 26.2474 169.117 26.6328C168.784 27.0182 168.529 27.474 168.352 28C168.174 28.5208 168.086 29.0859 168.086 29.6953ZM169.531 29.8672V29.6953C169.531 29.2839 169.581 28.8906 169.68 28.5156C169.779 28.1354 169.93 27.8021 170.133 27.5156C170.331 27.2292 170.578 27.0026 170.875 26.8359C171.172 26.6641 171.521 26.5781 171.922 26.5781C172.323 26.5781 172.672 26.6641 172.969 26.8359C173.271 27.0026 173.523 27.2292 173.727 27.5156C173.924 27.8021 174.073 28.1354 174.172 28.5156C174.276 28.8906 174.328 29.2839 174.328 29.6953V29.8672C174.328 30.2839 174.279 30.6823 174.18 31.0625C174.081 31.4375 173.932 31.7682 173.734 32.0547C173.531 32.3411 173.279 32.5677 172.977 32.7344C172.68 32.901 172.333 32.9844 171.938 32.9844C171.536 32.9844 171.185 32.901 170.883 32.7344C170.581 32.5677 170.331 32.3411 170.133 32.0547C169.93 31.7682 169.779 31.4375 169.68 31.0625C169.581 30.6823 169.531 30.2839 169.531 29.8672ZM183.672 34H184.984V25.5469H183.531V31.6094C183.453 31.7917 183.354 31.9609 183.234 32.1172C183.12 32.2682 182.984 32.3984 182.828 32.5078C182.641 32.6432 182.419 32.75 182.164 32.8281C181.909 32.901 181.62 32.9375 181.297 32.9375C181.021 32.9375 180.776 32.901 180.562 32.8281C180.354 32.7552 180.177 32.6276 180.031 32.4453C179.885 32.2682 179.776 32.0286 179.703 31.7266C179.63 31.4245 179.594 31.0443 179.594 30.5859V25.5469H178.148V30.5703C178.148 31.2005 178.216 31.7422 178.352 32.1953C178.492 32.6432 178.69 33.013 178.945 33.3047C179.201 33.5964 179.508 33.8125 179.867 33.9531C180.227 34.0885 180.628 34.1562 181.07 34.1562C181.622 34.1562 182.109 34.0417 182.531 33.8125C182.953 33.5781 183.305 33.2526 183.586 32.8359L183.672 34ZM193.25 25.3906C192.635 25.3906 192.086 25.526 191.602 25.7969C191.122 26.0625 190.711 26.4271 190.367 26.8906L190.359 26.6797L190.297 25.5469H188.922V34H190.375V28.5781C190.469 28.3177 190.586 28.0833 190.727 27.875C190.872 27.6615 191.042 27.4818 191.234 27.3359C191.448 27.1693 191.698 27.0443 191.984 26.9609C192.271 26.8724 192.591 26.8281 192.945 26.8281C193.221 26.8281 193.484 26.8438 193.734 26.875C193.99 26.901 194.258 26.9453 194.539 27.0078L194.734 25.5938C194.589 25.5312 194.37 25.4818 194.078 25.4453C193.792 25.4089 193.516 25.3906 193.25 25.3906ZM197.32 34H198.766V27.9375C198.865 27.7552 198.979 27.5885 199.109 27.4375C199.245 27.2865 199.391 27.1536 199.547 27.0391C199.74 26.9089 199.951 26.8073 200.18 26.7344C200.409 26.6562 200.656 26.6172 200.922 26.6172C201.229 26.6172 201.5 26.6536 201.734 26.7266C201.974 26.7995 202.177 26.9167 202.344 27.0781C202.505 27.2396 202.628 27.4505 202.711 27.7109C202.794 27.9714 202.836 28.2891 202.836 28.6641V34H204.281V28.6328C204.281 28.0703 204.211 27.5859 204.07 27.1797C203.935 26.7682 203.74 26.4297 203.484 26.1641C203.229 25.8984 202.919 25.7031 202.555 25.5781C202.195 25.4531 201.794 25.3906 201.352 25.3906C201.023 25.3958 200.711 25.4453 200.414 25.5391C200.122 25.6276 199.852 25.7552 199.602 25.9219C199.435 26.0312 199.276 26.1615 199.125 26.3125C198.979 26.4583 198.844 26.6198 198.719 26.7969L198.617 25.5469H197.32V34ZM210.664 34.1562C211.487 34.1562 212.177 33.9922 212.734 33.6641C213.297 33.3307 213.719 32.9505 214 32.5234L213.117 31.8359C212.852 32.1797 212.518 32.4557 212.117 32.6641C211.716 32.8724 211.258 32.9766 210.742 32.9766C210.352 32.9766 209.995 32.9036 209.672 32.7578C209.349 32.612 209.073 32.4115 208.844 32.1562C208.62 31.9167 208.443 31.6406 208.312 31.3281C208.188 31.0156 208.107 30.6536 208.07 30.2422V30.1875H214.109V29.5391C214.109 28.9505 214.034 28.4036 213.883 27.8984C213.737 27.3932 213.513 26.9531 213.211 26.5781C212.909 26.2083 212.529 25.9193 212.07 25.7109C211.617 25.4974 211.086 25.3906 210.477 25.3906C209.992 25.3906 209.518 25.4896 209.055 25.6875C208.596 25.8854 208.188 26.1693 207.828 26.5391C207.464 26.9141 207.172 27.3724 206.953 27.9141C206.734 28.4505 206.625 29.0599 206.625 29.7422V30.0703C206.625 30.6589 206.724 31.2031 206.922 31.7031C207.12 32.2031 207.396 32.6354 207.75 33C208.104 33.3646 208.529 33.6484 209.023 33.8516C209.523 34.0547 210.07 34.1562 210.664 34.1562ZM210.477 26.5781C210.846 26.5781 211.164 26.6458 211.43 26.7812C211.701 26.9167 211.924 27.0938 212.102 27.3125C212.279 27.5312 212.417 27.7917 212.516 28.0938C212.615 28.3906 212.664 28.6693 212.664 28.9297V29H208.117C208.174 28.6094 208.273 28.2656 208.414 27.9688C208.56 27.6667 208.737 27.4115 208.945 27.2031C209.154 27 209.388 26.8464 209.648 26.7422C209.909 26.6328 210.185 26.5781 210.477 26.5781ZM220.273 34.1562C221.096 34.1562 221.786 33.9922 222.344 33.6641C222.906 33.3307 223.328 32.9505 223.609 32.5234L222.727 31.8359C222.461 32.1797 222.128 32.4557 221.727 32.6641C221.326 32.8724 220.867 32.9766 220.352 32.9766C219.961 32.9766 219.604 32.9036 219.281 32.7578C218.958 32.612 218.682 32.4115 218.453 32.1562C218.229 31.9167 218.052 31.6406 217.922 31.3281C217.797 31.0156 217.716 30.6536 217.68 30.2422V30.1875H223.719V29.5391C223.719 28.9505 223.643 28.4036 223.492 27.8984C223.346 27.3932 223.122 26.9531 222.82 26.5781C222.518 26.2083 222.138 25.9193 221.68 25.7109C221.227 25.4974 220.695 25.3906 220.086 25.3906C219.602 25.3906 219.128 25.4896 218.664 25.6875C218.206 25.8854 217.797 26.1693 217.438 26.5391C217.073 26.9141 216.781 27.3724 216.562 27.9141C216.344 28.4505 216.234 29.0599 216.234 29.7422V30.0703C216.234 30.6589 216.333 31.2031 216.531 31.7031C216.729 32.2031 217.005 32.6354 217.359 33C217.714 33.3646 218.138 33.6484 218.633 33.8516C219.133 34.0547 219.68 34.1562 220.273 34.1562ZM220.086 26.5781C220.456 26.5781 220.773 26.6458 221.039 26.7812C221.31 26.9167 221.534 27.0938 221.711 27.3125C221.888 27.5312 222.026 27.7917 222.125 28.0938C222.224 28.3906 222.273 28.6693 222.273 28.9297V29H217.727C217.784 28.6094 217.883 28.2656 218.023 27.9688C218.169 27.6667 218.346 27.4115 218.555 27.2031C218.763 27 218.997 26.8464 219.258 26.7422C219.518 26.6328 219.794 26.5781 220.086 26.5781ZM228.664 33.0625C228.664 33.3646 228.758 33.6224 228.945 33.8359C229.138 34.0443 229.422 34.1484 229.797 34.1484C230.167 34.1484 230.451 34.0443 230.648 33.8359C230.846 33.6276 230.945 33.3698 230.945 33.0625C230.945 32.75 230.846 32.487 230.648 32.2734C230.456 32.0547 230.172 31.9453 229.797 31.9453C229.417 31.9453 229.133 32.0547 228.945 32.2734C228.758 32.4922 228.664 32.7552 228.664 33.0625Z" fill="#EFB55E"/>
</svg>
