<svg width="147" height="25" viewBox="0 0 147 25" fill="none" xmlns="http://www.w3.org/2000/svg">
<line x1="62.0415" y1="12.0208" x2="23.0415" y2="12.0207" stroke="#DA8B14" stroke-width="2"/>
<line x1="123.083" y1="12.0208" x2="84.0835" y2="12.0207" stroke="#31251E" stroke-width="2"/>
<rect x="1.41421" width="14.9705" height="14.9705" transform="matrix(0.707106 -0.707107 0.707106 0.707107 0.414214 13)" stroke="#DA8B14" stroke-width="2"/>
<rect width="5.9896" height="5.9896" transform="matrix(0.707106 -0.707107 0.707106 0.707107 0 12)" fill="#DA8B14"/>
<rect width="5.9896" height="5.9896" transform="matrix(0.707106 -0.707107 0.707106 0.707107 15.5294 12)" fill="#DA8B14"/>
<rect width="5.9896" height="5.9896" transform="matrix(0.707106 -0.707107 0.707106 0.707107 7.76483 4.23538)" fill="#DA8B14"/>
<rect width="5.9896" height="5.9896" transform="matrix(0.707106 -0.707107 0.707106 0.707107 7.76483 19.7646)" fill="#DA8B14"/>
<rect x="1.41421" width="14.9705" height="14.9705" transform="matrix(0.707106 -0.707107 0.707106 0.707107 61.4557 13.0002)" stroke="#31251E" stroke-width="2"/>
<rect width="5.9896" height="5.9896" transform="matrix(0.707106 -0.707107 0.707106 0.707107 61.0415 12.0002)" fill="#31251E"/>
<rect width="5.9896" height="5.9896" transform="matrix(0.707106 -0.707107 0.707106 0.707107 76.5709 12.0002)" fill="#31251E"/>
<rect width="5.9896" height="5.9896" transform="matrix(0.707106 -0.707107 0.707106 0.707107 68.8063 4.23563)" fill="#31251E"/>
<rect width="5.9896" height="5.9896" transform="matrix(0.707106 -0.707107 0.707106 0.707107 68.8063 19.7649)" fill="#31251E"/>
<rect x="1.41421" width="14.9705" height="14.9705" transform="matrix(0.707106 -0.707107 0.707106 0.707107 122.498 13.0002)" stroke="#31251E" stroke-width="2"/>
<rect width="5.9896" height="5.9896" transform="matrix(0.707106 -0.707107 0.707106 0.707107 122.083 12.0002)" fill="#31251E"/>
<rect width="5.9896" height="5.9896" transform="matrix(0.707106 -0.707107 0.707106 0.707107 137.613 12.0002)" fill="#31251E"/>
<rect width="5.9896" height="5.9896" transform="matrix(0.707106 -0.707107 0.707106 0.707107 129.848 4.23563)" fill="#31251E"/>
<rect width="5.9896" height="5.9896" transform="matrix(0.707106 -0.707107 0.707106 0.707107 129.848 19.7649)" fill="#31251E"/>
</svg>
