<svg width="260" height="88" viewBox="0 0 260 88" fill="none" xmlns="http://www.w3.org/2000/svg">
<path d="M30.1613 2.5V20.905C30.1613 24.055 29.9963 26.02 29.6663 26.8C29.1563 28.03 27.8213 29.635 25.6613 31.615C23.5313 33.565 21.9263 34.54 20.8463 34.54C19.7663 34.54 18.1463 33.565 15.9863 31.615C13.8563 29.635 12.5363 28.03 12.0263 26.8C11.6963 26.02 11.5313 24.055 11.5313 20.905V14.38C11.5313 11.95 11.3513 10.24 10.9913 9.25C10.6613 8.26 9.94135 7.09 8.83135 5.74L14.2313 1.96C15.1913 2.59 16.0163 3.82 16.7063 5.65C17.3963 7.45 17.7413 9.61 17.7413 12.13V20.905C17.7413 23.365 17.8613 24.88 18.1013 25.45C18.3413 25.99 18.7463 26.575 19.3163 27.205C19.9163 27.805 20.4263 28.105 20.8463 28.105C21.2663 28.105 21.7613 27.805 22.3313 27.205C22.9313 26.575 23.3513 25.99 23.5913 25.45C23.8313 24.88 23.9513 23.365 23.9513 20.905V2.5H30.1613ZM33.9944 0.249997H39.9344V25.315C39.9344 26.845 40.1144 28.03 40.4744 28.87C40.8344 29.71 41.4044 30.445 42.1844 31.075L37.2344 34.54C35.0744 32.83 33.9944 30.4 33.9944 27.25V0.249997ZM51.7434 14.47V24.415C51.7434 25.825 52.2234 27.115 53.1834 28.285C54.1434 29.455 55.4634 30.385 57.1434 31.075L52.1934 34.54C50.3934 33.7 48.8784 32.545 47.6484 31.075C46.4184 29.575 45.8034 28 45.8034 26.35V14.47H43.5534V11.095L45.8034 10.555C45.7434 9.085 45.5634 7.93 45.2634 7.09C44.9634 6.22 44.3934 5.38 43.5534 4.57L48.5034 1.105C50.6634 2.815 51.7434 5.245 51.7434 8.395V9.745H56.7834V14.47H51.7434ZM60.0593 9.745H65.9993V25.315C65.9993 26.845 66.1793 28.03 66.5393 28.87C66.8993 29.71 67.4693 30.445 68.2493 31.075L63.2993 34.54C61.1393 32.83 60.0593 30.4 60.0593 27.25V9.745ZM63.1193 0.339999C63.4493 0.339999 64.1843 0.834999 65.3243 1.825C66.4643 2.785 67.0343 3.445 67.0343 3.805C67.0343 4.135 66.4493 4.795 65.2793 5.785C64.1393 6.775 63.4043 7.27 63.0743 7.27C62.7743 7.27 62.0543 6.79 60.9143 5.83C59.7743 4.84 59.2043 4.18 59.2043 3.85C59.2043 3.49 59.7743 2.815 60.9143 1.825C62.0843 0.834999 62.8193 0.339999 63.1193 0.339999ZM87.0449 34H81.1049V17.26C81.1049 16.75 80.8349 16.225 80.2949 15.685C79.7549 15.115 79.2899 14.83 78.8999 14.83C78.5399 14.83 77.9399 15.19 77.0999 15.91V34H71.1599V18.475C71.1599 16.945 70.9799 15.76 70.6199 14.92C70.2599 14.08 69.6899 13.345 68.9099 12.715L73.8599 9.25C74.8499 10.09 75.5849 10.945 76.0649 11.815C78.0149 10.075 79.3649 9.205 80.1149 9.205C80.5649 9.205 81.2999 9.535 82.3199 10.195C83.3399 10.855 84.2699 11.65 85.1099 12.58C87.4799 10.33 89.1149 9.205 90.0149 9.205C90.9449 9.205 92.3249 10.045 94.1549 11.725C96.0149 13.375 96.9449 15.01 96.9449 16.63V25.315C96.9449 26.845 97.1249 28.03 97.4849 28.87C97.8449 29.71 98.4149 30.445 99.1949 31.075L94.2449 34.54C92.0849 32.83 91.0049 30.4 91.0049 27.25V17.26C91.0049 16.75 90.7349 16.225 90.1949 15.685C89.6549 15.115 89.2049 14.83 88.8449 14.83C88.5149 14.83 87.8849 15.205 86.9549 15.955C87.0149 16.255 87.0449 16.48 87.0449 16.63V34ZM118.325 9.745V28.195C118.505 29.245 119.21 30.175 120.44 30.985L116.39 34.45C116 34.18 115.52 33.7 114.95 33.01C114.38 32.32 113.9 31.615 113.51 30.895C111.02 33.325 109.28 34.54 108.29 34.54C107.57 34.54 106.4 33.745 104.78 32.155C103.19 30.565 102.2 29.275 101.81 28.285C101.42 27.295 101.225 25.165 101.225 21.895C101.225 18.595 101.42 16.45 101.81 15.46C102.2 14.47 103.19 13.18 104.78 11.59C106.4 10 107.57 9.205 108.29 9.205C109.34 9.205 111.035 10.285 113.375 12.445L113.915 9.745H118.325ZM112.07 16.63C111.86 16.24 111.425 15.85 110.765 15.46C110.135 15.04 109.655 14.83 109.325 14.83C108.995 14.83 108.635 15.025 108.245 15.415C107.885 15.805 107.645 16.165 107.525 16.495C107.135 17.035 106.94 18.835 106.94 21.895C106.94 24.925 107.135 26.71 107.525 27.25C107.645 27.55 107.885 27.91 108.245 28.33C108.635 28.72 108.995 28.915 109.325 28.915C109.655 28.915 110.135 28.72 110.765 28.33C111.425 27.91 111.845 27.535 112.025 27.205C112.235 26.875 112.355 25.12 112.385 21.94C112.385 18.76 112.28 16.99 112.07 16.63ZM129.966 14.47V24.415C129.966 25.825 130.446 27.115 131.406 28.285C132.366 29.455 133.686 30.385 135.366 31.075L130.416 34.54C128.616 33.7 127.101 32.545 125.871 31.075C124.641 29.575 124.026 28 124.026 26.35V14.47H121.776V11.095L124.026 10.555C123.966 9.085 123.786 7.93 123.486 7.09C123.186 6.22 122.616 5.38 121.776 4.57L126.726 1.105C128.886 2.815 129.966 5.245 129.966 8.395V9.745H135.006V14.47H129.966ZM154.662 21.805V23.425H143.772C143.772 25.225 143.997 26.65 144.447 27.7C144.597 28.06 144.867 28.435 145.257 28.825C145.647 29.185 146.052 29.365 146.472 29.365C146.892 29.365 147.417 29.005 148.047 28.285C148.677 27.565 149.172 26.695 149.532 25.675L154.167 28.96C153.357 30.46 152.112 31.765 150.432 32.875C148.782 33.985 147.447 34.54 146.427 34.54C145.407 34.54 143.922 33.745 141.972 32.155C140.052 30.565 138.882 29.335 138.462 28.465C138.042 27.565 137.832 25.375 137.832 21.895C137.832 18.385 138.042 16.195 138.462 15.325C138.882 14.425 140.052 13.18 141.972 11.59C143.922 10 145.347 9.205 146.247 9.205C147.147 9.205 148.557 10 150.477 11.59C152.427 13.18 153.612 14.425 154.032 15.325C154.452 16.195 154.662 18.355 154.662 21.805ZM148.407 16.18C148.197 15.76 147.852 15.355 147.372 14.965C146.922 14.575 146.487 14.38 146.067 14.38C145.677 14.38 145.227 14.785 144.717 15.595C144.207 16.375 143.892 17.56 143.772 19.15H148.902C148.812 17.56 148.647 16.57 148.407 16.18ZM179.112 18.745H180.012C180.582 18.745 181.242 18.475 181.992 17.935C182.772 17.365 183.267 16.75 183.477 16.09C183.687 15.43 183.792 14.545 183.792 13.435C183.792 12.325 183.687 11.41 183.477 10.69C183.267 9.94 182.772 9.295 181.992 8.755C181.242 8.215 180.507 7.945 179.787 7.945C179.097 7.945 178.152 8.335 176.952 9.115C177.042 10.105 177.087 11.11 177.087 12.13V34H170.877V14.74C170.877 12.22 170.697 10.45 170.337 9.43C170.007 8.38 169.287 7.165 168.177 5.785L173.577 1.96C174.357 2.5 175.047 3.385 175.647 4.615C178.107 2.845 179.862 1.96 180.912 1.96C181.962 1.96 183.417 2.8 185.277 4.48C187.137 6.16 188.397 7.57 189.057 8.71C189.387 9.13 189.552 10.585 189.552 13.075C189.552 15.565 189.387 17.14 189.057 17.8C188.397 18.94 187.137 20.35 185.277 22.03C183.417 23.71 181.962 24.55 180.912 24.55H179.112V18.745ZM192.467 9.745H198.407V25.315C198.407 26.845 198.587 28.03 198.947 28.87C199.307 29.71 199.877 30.445 200.657 31.075L195.707 34.54C193.547 32.83 192.467 30.4 192.467 27.25V9.745ZM195.527 0.339999C195.857 0.339999 196.592 0.834999 197.732 1.825C198.872 2.785 199.442 3.445 199.442 3.805C199.442 4.135 198.857 4.795 197.687 5.785C196.547 6.775 195.812 7.27 195.482 7.27C195.182 7.27 194.462 6.79 193.322 5.83C192.182 4.84 191.612 4.18 191.612 3.85C191.612 3.49 192.182 2.815 193.322 1.825C194.492 0.834999 195.227 0.339999 195.527 0.339999ZM208.157 34H202.217V31.705C202.217 28.825 202.412 26.86 202.802 25.81C203.222 24.76 204.542 23.095 206.762 20.815C204.722 18.475 203.492 16.795 203.072 15.775C202.652 14.755 202.442 13.06 202.442 10.69V9.745H208.382V10.69C208.382 12.34 208.502 13.51 208.742 14.2C208.982 14.86 209.357 15.64 209.867 16.54C210.377 17.44 210.722 17.89 210.902 17.89C211.082 17.89 211.427 17.44 211.937 16.54C212.447 15.64 212.822 14.86 213.062 14.2C213.302 13.51 213.422 12.34 213.422 10.69V9.745H219.362V10.69C219.362 13.06 219.197 14.635 218.867 15.415C218.207 16.855 216.917 18.655 214.997 20.815C215.927 21.745 216.782 22.735 217.562 23.785C218.372 24.805 218.912 25.66 219.182 26.35C219.452 27.04 219.587 28.825 219.587 31.705V34H213.647V31.705C213.647 29.455 213.527 28.015 213.287 27.385C213.077 26.755 212.672 26.035 212.072 25.225C211.502 24.385 211.097 23.965 210.857 23.965C210.647 23.965 210.257 24.385 209.687 25.225C209.117 26.065 208.712 26.8 208.472 27.43C208.262 28.03 208.157 29.455 208.157 31.705V34ZM239.345 21.805V23.425H228.455C228.455 25.225 228.68 26.65 229.13 27.7C229.28 28.06 229.55 28.435 229.94 28.825C230.33 29.185 230.735 29.365 231.155 29.365C231.575 29.365 232.1 29.005 232.73 28.285C233.36 27.565 233.855 26.695 234.215 25.675L238.85 28.96C238.04 30.46 236.795 31.765 235.115 32.875C233.465 33.985 232.13 34.54 231.11 34.54C230.09 34.54 228.605 33.745 226.655 32.155C224.735 30.565 223.565 29.335 223.145 28.465C222.725 27.565 222.515 25.375 222.515 21.895C222.515 18.385 222.725 16.195 223.145 15.325C223.565 14.425 224.735 13.18 226.655 11.59C228.605 10 230.03 9.205 230.93 9.205C231.83 9.205 233.24 10 235.16 11.59C237.11 13.18 238.295 14.425 238.715 15.325C239.135 16.195 239.345 18.355 239.345 21.805ZM233.09 16.18C232.88 15.76 232.535 15.355 232.055 14.965C231.605 14.575 231.17 14.38 230.75 14.38C230.36 14.38 229.91 14.785 229.4 15.595C228.89 16.375 228.575 17.56 228.455 19.15H233.585C233.495 17.56 233.33 16.57 233.09 16.18ZM242.735 0.249997H248.675V25.315C248.675 26.845 248.855 28.03 249.215 28.87C249.575 29.71 250.145 30.445 250.925 31.075L245.975 34.54C243.815 32.83 242.735 30.4 242.735 27.25V0.249997Z" fill="white"/>
<path d="M0.563477 62.365V58.135C0.563477 54.385 0.863477 51.985 1.46348 50.935C2.06348 49.885 3.33848 48.46 5.28848 46.66C7.26848 44.86 8.73848 43.96 9.69848 43.96C11.3485 43.96 13.2385 44.92 15.3685 46.84C17.4985 48.73 18.8485 50.815 19.4185 53.095L14.4235 56.56C13.9435 54.94 13.1785 53.455 12.1285 52.105C11.0785 50.725 10.3435 50.035 9.92348 50.035C9.17348 50.035 8.31848 50.77 7.35848 52.24C6.96848 52.81 6.77348 54.775 6.77348 58.135V62.365C6.77348 65.815 6.96848 67.78 7.35848 68.26C8.31848 69.73 9.17348 70.465 9.92348 70.465C10.3435 70.465 11.0785 69.88 12.1285 68.71C13.1785 67.51 13.9435 66.19 14.4235 64.75L19.4185 68.26C18.8485 70.33 17.4985 72.235 15.3685 73.975C13.2385 75.685 11.3485 76.54 9.69848 76.54C8.73848 76.54 7.26848 75.64 5.28848 73.84C3.33848 72.04 2.06348 70.615 1.46348 69.565C0.863477 68.515 0.563477 66.115 0.563477 62.365ZM29.8367 76H23.8967V51.43C23.8967 49.9 23.7167 48.73 23.3567 47.92C22.9967 47.11 22.4267 46.375 21.6467 45.715L26.5967 42.25C28.7567 43.96 29.8367 46.375 29.8367 49.495V53.68C31.6967 52.03 33.0467 51.205 33.8867 51.205C34.7267 51.205 36.0617 52.045 37.8917 53.725C39.7517 55.375 40.6817 57.01 40.6817 58.63V67.315C40.6817 68.845 40.8617 70.03 41.2217 70.87C41.5817 71.71 42.1517 72.445 42.9317 73.075L37.9817 76.54C35.8217 74.83 34.7417 72.4 34.7417 69.25V59.26C34.7417 58.75 34.4717 58.225 33.9317 57.685C33.3917 57.115 32.8817 56.83 32.4017 56.83C31.9517 56.83 31.0967 57.46 29.8367 58.72V76ZM62.0535 51.745V70.195C62.2335 71.245 62.9385 72.175 64.1685 72.985L60.1185 76.45C59.7285 76.18 59.2485 75.7 58.6785 75.01C58.1085 74.32 57.6285 73.615 57.2385 72.895C54.7485 75.325 53.0085 76.54 52.0185 76.54C51.2985 76.54 50.1285 75.745 48.5085 74.155C46.9185 72.565 45.9285 71.275 45.5385 70.285C45.1485 69.295 44.9535 67.165 44.9535 63.895C44.9535 60.595 45.1485 58.45 45.5385 57.46C45.9285 56.47 46.9185 55.18 48.5085 53.59C50.1285 52 51.2985 51.205 52.0185 51.205C53.0685 51.205 54.7635 52.285 57.1035 54.445L57.6435 51.745H62.0535ZM55.7985 58.63C55.5885 58.24 55.1535 57.85 54.4935 57.46C53.8635 57.04 53.3835 56.83 53.0535 56.83C52.7235 56.83 52.3635 57.025 51.9735 57.415C51.6135 57.805 51.3735 58.165 51.2535 58.495C50.8635 59.035 50.6685 60.835 50.6685 63.895C50.6685 66.925 50.8635 68.71 51.2535 69.25C51.3735 69.55 51.6135 69.91 51.9735 70.33C52.3635 70.72 52.7235 70.915 53.0535 70.915C53.3835 70.915 53.8635 70.72 54.4935 70.33C55.1535 69.91 55.5735 69.535 55.7535 69.205C55.9635 68.875 56.0835 67.12 56.1135 63.94C56.1135 60.76 56.0085 58.99 55.7985 58.63ZM83.6391 76H77.6991V59.26C77.6991 58.75 77.4291 58.225 76.8891 57.685C76.3491 57.115 75.8841 56.83 75.4941 56.83C75.1341 56.83 74.5341 57.19 73.6941 57.91V76H67.7541V60.475C67.7541 58.945 67.5741 57.76 67.2141 56.92C66.8541 56.08 66.2841 55.345 65.5041 54.715L70.4541 51.25C71.4441 52.09 72.1791 52.945 72.6591 53.815C74.6091 52.075 75.9591 51.205 76.7091 51.205C77.1591 51.205 77.8941 51.535 78.9141 52.195C79.9341 52.855 80.8641 53.65 81.7041 54.58C84.0741 52.33 85.7091 51.205 86.6091 51.205C87.5391 51.205 88.9191 52.045 90.7491 53.725C92.6091 55.375 93.5391 57.01 93.5391 58.63V67.315C93.5391 68.845 93.7191 70.03 94.0791 70.87C94.4391 71.71 95.0091 72.445 95.7891 73.075L90.8391 76.54C88.6791 74.83 87.5991 72.4 87.5991 69.25V59.26C87.5991 58.75 87.3291 58.225 86.7891 57.685C86.2491 57.115 85.7991 56.83 85.4391 56.83C85.1091 56.83 84.4791 57.205 83.5491 57.955C83.6091 58.255 83.6391 58.48 83.6391 58.63V76ZM105.65 69.16C105.86 69.52 106.28 69.91 106.91 70.33C107.57 70.72 108.11 70.915 108.53 70.915C108.98 70.915 109.535 70.36 110.195 69.25C110.585 68.56 110.78 66.775 110.78 63.895C110.78 60.985 110.585 59.185 110.195 58.495C110.015 58.165 109.745 57.805 109.385 57.415C109.055 57.025 108.725 56.83 108.395 56.83C108.095 56.83 107.615 57.04 106.955 57.46C106.295 57.85 105.86 58.225 105.65 58.585C105.44 58.945 105.335 60.7 105.335 63.85C105.335 67 105.44 68.77 105.65 69.16ZM115.91 70.285C115.52 71.275 114.515 72.565 112.895 74.155C111.305 75.745 110.105 76.54 109.295 76.54C108.485 76.54 107.165 75.73 105.335 74.11V78.025C105.335 79.555 105.515 80.74 105.875 81.58C106.235 82.42 106.805 83.155 107.585 83.785L102.635 87.25C100.475 85.54 99.3947 83.11 99.3947 79.96V60.835C99.3947 57.985 98.6447 55.93 97.1447 54.67L102.095 51.205C102.935 51.895 103.715 52.975 104.435 54.445C106.775 52.285 108.44 51.205 109.43 51.205C110.15 51.205 111.305 52 112.895 53.59C114.515 55.18 115.52 56.47 115.91 57.46C116.3 58.45 116.495 60.595 116.495 63.895C116.495 67.165 116.3 69.295 115.91 70.285ZM119.627 51.745H125.567V67.315C125.567 68.845 125.747 70.03 126.107 70.87C126.467 71.71 127.037 72.445 127.817 73.075L122.867 76.54C120.707 74.83 119.627 72.4 119.627 69.25V51.745ZM122.687 42.34C123.017 42.34 123.752 42.835 124.892 43.825C126.032 44.785 126.602 45.445 126.602 45.805C126.602 46.135 126.017 46.795 124.847 47.785C123.707 48.775 122.972 49.27 122.642 49.27C122.342 49.27 121.622 48.79 120.482 47.83C119.342 46.84 118.772 46.18 118.772 45.85C118.772 45.49 119.342 44.815 120.482 43.825C121.652 42.835 122.387 42.34 122.687 42.34ZM136.443 70.69C136.923 71.14 137.298 71.365 137.568 71.365C137.838 71.365 138.198 71.14 138.648 70.69C139.128 70.24 139.473 69.835 139.683 69.475C140.073 68.815 140.268 66.955 140.268 63.895C140.268 60.835 140.073 58.96 139.683 58.27C139.473 57.91 139.128 57.505 138.648 57.055C138.198 56.605 137.838 56.38 137.568 56.38C137.298 56.38 136.923 56.605 136.443 57.055C135.993 57.505 135.663 57.91 135.453 58.27C135.063 58.93 134.868 60.79 134.868 63.85C134.868 66.91 135.063 68.785 135.453 69.475C135.663 69.835 135.993 70.24 136.443 70.69ZM141.618 74.335C139.788 75.805 138.438 76.54 137.568 76.54C136.698 76.54 135.333 75.805 133.473 74.335C131.643 72.865 130.518 71.77 130.098 71.05C129.468 69.94 129.153 67.54 129.153 63.85C129.153 60.16 129.468 57.775 130.098 56.695C130.518 55.975 131.643 54.88 133.473 53.41C135.333 51.94 136.698 51.205 137.568 51.205C138.438 51.205 139.788 51.94 141.618 53.41C143.478 54.88 144.618 55.975 145.038 56.695C145.668 57.775 145.983 60.16 145.983 63.85C145.983 67.54 145.668 69.94 145.038 71.05C144.618 71.77 143.478 72.865 141.618 74.335ZM156.179 76H150.239V60.475C150.239 58.945 150.059 57.76 149.699 56.92C149.339 56.08 148.769 55.345 147.989 54.715L152.939 51.25C154.049 52.15 154.874 53.185 155.414 54.355C157.634 52.255 159.194 51.205 160.094 51.205C161.024 51.205 162.404 52.045 164.234 53.725C166.094 55.375 167.024 57.01 167.024 58.63V67.315C167.024 68.845 167.204 70.03 167.564 70.87C167.924 71.71 168.494 72.445 169.274 73.075L164.324 76.54C162.164 74.83 161.084 72.4 161.084 69.25V59.26C161.084 58.75 160.814 58.225 160.274 57.685C159.734 57.115 159.224 56.83 158.744 56.83C158.294 56.83 157.439 57.46 156.179 58.72V76ZM187.361 68.71C187.361 69.64 186.206 71.185 183.896 73.345C181.586 75.475 179.861 76.54 178.721 76.54C177.611 76.54 176.216 75.985 174.536 74.875C172.886 73.765 171.656 72.46 170.846 70.96L175.481 67.765C176.981 69.865 178.076 70.915 178.766 70.915C179.276 70.915 179.906 70.66 180.656 70.15C181.406 69.64 181.781 69.16 181.781 68.71C181.781 68.59 181.421 68.335 180.701 67.945C179.981 67.525 179.096 67.015 178.046 66.415C177.026 65.785 176.006 65.095 174.986 64.345C173.966 63.565 173.096 62.62 172.376 61.51C171.656 60.4 171.296 59.275 171.296 58.135C171.296 56.995 172.316 55.555 174.356 53.815C176.396 52.075 177.956 51.205 179.036 51.205C180.146 51.205 181.526 51.76 183.176 52.87C184.856 53.98 186.101 55.285 186.911 56.785L182.276 59.98C180.776 57.88 179.681 56.83 178.991 56.83C178.631 56.83 178.181 57.04 177.641 57.46C177.131 57.85 176.876 58.21 176.876 58.54C176.876 58.87 177.416 59.38 178.496 60.07C179.606 60.76 180.806 61.48 182.096 62.23C183.416 62.95 184.616 63.91 185.696 65.11C186.806 66.28 187.361 67.48 187.361 68.71ZM197.136 76H191.196V51.43C191.196 49.9 191.016 48.73 190.656 47.92C190.296 47.11 189.726 46.375 188.946 45.715L193.896 42.25C196.056 43.96 197.136 46.375 197.136 49.495V53.68C198.996 52.03 200.346 51.205 201.186 51.205C202.026 51.205 203.361 52.045 205.191 53.725C207.051 55.375 207.981 57.01 207.981 58.63V67.315C207.981 68.845 208.161 70.03 208.521 70.87C208.881 71.71 209.451 72.445 210.231 73.075L205.281 76.54C203.121 74.83 202.041 72.4 202.041 69.25V59.26C202.041 58.75 201.771 58.225 201.231 57.685C200.691 57.115 200.181 56.83 199.701 56.83C199.251 56.83 198.396 57.46 197.136 58.72V76ZM212.703 51.745H218.643V67.315C218.643 68.845 218.823 70.03 219.183 70.87C219.543 71.71 220.113 72.445 220.893 73.075L215.943 76.54C213.783 74.83 212.703 72.4 212.703 69.25V51.745ZM215.763 42.34C216.093 42.34 216.828 42.835 217.968 43.825C219.108 44.785 219.678 45.445 219.678 45.805C219.678 46.135 219.093 46.795 217.923 47.785C216.783 48.775 216.048 49.27 215.718 49.27C215.418 49.27 214.698 48.79 213.558 47.83C212.418 46.84 211.848 46.18 211.848 45.85C211.848 45.49 212.418 44.815 213.558 43.825C214.728 42.835 215.463 42.34 215.763 42.34ZM230.059 69.16C230.269 69.52 230.689 69.91 231.319 70.33C231.979 70.72 232.519 70.915 232.939 70.915C233.389 70.915 233.944 70.36 234.604 69.25C234.994 68.56 235.189 66.775 235.189 63.895C235.189 60.985 234.994 59.185 234.604 58.495C234.424 58.165 234.154 57.805 233.794 57.415C233.464 57.025 233.134 56.83 232.804 56.83C232.504 56.83 232.024 57.04 231.364 57.46C230.704 57.85 230.269 58.225 230.059 58.585C229.849 58.945 229.744 60.7 229.744 63.85C229.744 67 229.849 68.77 230.059 69.16ZM240.319 70.285C239.929 71.275 238.924 72.565 237.304 74.155C235.714 75.745 234.514 76.54 233.704 76.54C232.894 76.54 231.574 75.73 229.744 74.11V78.025C229.744 79.555 229.924 80.74 230.284 81.58C230.644 82.42 231.214 83.155 231.994 83.785L227.044 87.25C224.884 85.54 223.804 83.11 223.804 79.96V60.835C223.804 57.985 223.054 55.93 221.554 54.67L226.504 51.205C227.344 51.895 228.124 52.975 228.844 54.445C231.184 52.285 232.849 51.205 233.839 51.205C234.559 51.205 235.714 52 237.304 53.59C238.924 55.18 239.929 56.47 240.319 57.46C240.709 58.45 240.904 60.595 240.904 63.895C240.904 67.165 240.709 69.295 240.319 70.285ZM259.651 68.71C259.651 69.64 258.496 71.185 256.186 73.345C253.876 75.475 252.151 76.54 251.011 76.54C249.901 76.54 248.506 75.985 246.826 74.875C245.176 73.765 243.946 72.46 243.136 70.96L247.771 67.765C249.271 69.865 250.366 70.915 251.056 70.915C251.566 70.915 252.196 70.66 252.946 70.15C253.696 69.64 254.071 69.16 254.071 68.71C254.071 68.59 253.711 68.335 252.991 67.945C252.271 67.525 251.386 67.015 250.336 66.415C249.316 65.785 248.296 65.095 247.276 64.345C246.256 63.565 245.386 62.62 244.666 61.51C243.946 60.4 243.586 59.275 243.586 58.135C243.586 56.995 244.606 55.555 246.646 53.815C248.686 52.075 250.246 51.205 251.326 51.205C252.436 51.205 253.816 51.76 255.466 52.87C257.146 53.98 258.391 55.285 259.201 56.785L254.566 59.98C253.066 57.88 251.971 56.83 251.281 56.83C250.921 56.83 250.471 57.04 249.931 57.46C249.421 57.85 249.166 58.21 249.166 58.54C249.166 58.87 249.706 59.38 250.786 60.07C251.896 60.76 253.096 61.48 254.386 62.23C255.706 62.95 256.906 63.91 257.986 65.11C259.096 66.28 259.651 67.48 259.651 68.71Z" fill="#DA8B14"/>
</svg>
